<?xml version="1.0" standalone="no"?>
<!DOCTYPE svg PUBLIC "-//W3C//DTD SVG 1.1//EN" "http://www.w3.org/Graphics/SVG/1.1/DTD/svg11.dtd" >
<svg>
<metadata>
Created by FontForge 20120731 at Wed Aug  3 09:43:33 2016
 By www
Copyright (c) 2007 Monotype Imaging Inc. Soho is designed by Sebastian Lester. All rights reserved.
</metadata>
<defs>
<font id="SohoGothicW01-Regular" horiz-adv-x="579" >
  <font-face 
    font-family="SohoGothicW01-Regular"
    font-weight="400"
    font-stretch="normal"
    units-per-em="1000"
    panose-1="2 11 5 3 3 5 4 2 2 4"
    ascent="782"
    descent="-218"
    x-height="550"
    cap-height="743"
    bbox="-65 -237 1424 988"
    underline-thickness="50"
    underline-position="-100"
    unicode-range="U+000D-2122"
  />
<missing-glyph horiz-adv-x="0" 
 />
    <glyph glyph-name=".notdef" horiz-adv-x="0" 
 />
    <glyph glyph-name="glyph1" horiz-adv-x="0" 
 />
    <glyph glyph-name="uni000D" unicode="&#xd;" horiz-adv-x="0" 
 />
    <glyph glyph-name="space" unicode=" " horiz-adv-x="191" 
 />
    <glyph glyph-name="exclam" unicode="!" horiz-adv-x="251" 
d="M80 0v135h91v-135h-91zM165 193h-78l-10 581h97z" />
    <glyph glyph-name="quotedbl" unicode="&#x22;" horiz-adv-x="338" 
d="M32 759h91l-36 -240h-67zM282 519h-67l12 240h91z" />
    <glyph glyph-name="numbersign" unicode="#" horiz-adv-x="741" 
d="M512 197l-22 -197h-80l21 197h-168l-21 -197h-81l22 197h-99v77h107l20 187h-127v76h136l23 206h80l-22 -206h167l24 206h80l-22 -206h106v-76h-115l-20 -187h135v-77h-144zM292 461l-20 -187h168l20 187h-168z" />
    <glyph glyph-name="dollar" unicode="$" horiz-adv-x="620" 
d="M264 -13q-29 1 -56.5 3.5t-51 5.5t-40.5 6t-26 5v72q45 -5 97 -9t115 -4q76 0 114 28t38 94q0 44 -21 73t-80 56l-127 57q-74 33 -113.5 78.5t-39.5 122.5q0 160 191 178v102h87v-101q57 -2 104.5 -8t65.5 -11v-73q-17 2 -40.5 4t-50.5 4t-55.5 3.5t-55.5 1.5
q-74 0 -113.5 -21t-39.5 -79q0 -21 4.5 -38.5t16 -32t30.5 -27.5t49 -26l128 -56q39 -17 68 -37t48 -45t28.5 -55.5t9.5 -69.5q0 -88 -49 -138.5t-148 -60.5v-109h-87v107z" />
    <glyph glyph-name="percent" unicode="%" horiz-adv-x="1068" 
d="M1009 194q0 -101 -45.5 -152.5t-130.5 -51.5t-130.5 51.5t-45.5 152.5v57q0 101 45.5 152t130.5 51t130.5 -51t45.5 -152v-57zM929 251q0 40 -7.5 66.5t-20.5 41.5t-30.5 21t-37.5 6t-37.5 -6t-30.5 -21t-20.5 -41.5t-7.5 -66.5v-57q0 -41 7.5 -67t20.5 -41.5t30.5 -21.5
t37.5 -6t37.5 6t30.5 21.5t20.5 41.5t7.5 67v57zM340 0h-90l474 743h90zM409 494q0 -45 -9 -83t-30 -65t-54.5 -42t-81.5 -15q-49 0 -82.5 15.5t-54.5 43.5t-30 65t-9 81v55q0 44 9 81.5t30 65t54.5 43t82.5 15.5q48 0 81.5 -15t54.5 -42t30 -64.5t9 -83.5v-55zM329 549
q0 77 -23 107t-72 30t-72.5 -31.5t-23.5 -105.5v-55q0 -77 23.5 -107t72.5 -30t72 30t23 107v55z" />
    <glyph glyph-name="ampersand" unicode="&#x26;" horiz-adv-x="739" 
d="M530 65q-38 -37 -94 -58t-134 -21q-55 0 -99.5 11.5t-76 36t-49 63.5t-17.5 95q0 73 38 126t113 95q-21 22 -39 43t-31.5 42.5t-21 45t-7.5 52.5q0 85 53.5 122t163.5 37q41 0 90.5 -4t91.5 -12v-72q-46 5 -93.5 6.5t-88.5 1.5q-67 0 -95.5 -16t-28.5 -62q0 -16 5 -31
t16 -32.5t28.5 -38t43.5 -48.5l232 -251q14 35 21 77.5t9 91.5l-61 7v69h195v-69l-58 -7q-3 -64 -14.5 -122t-37.5 -106l112 -121v-16h-105zM301 61q63 0 107 15t73 43l-219 239q-24 -14 -44 -30t-34.5 -35.5t-22 -44t-7.5 -56.5q0 -68 37.5 -99.5t109.5 -31.5z" />
    <glyph glyph-name="quotesingle" unicode="'" horiz-adv-x="143" 
d="M87 519h-67l12 240h91z" />
    <glyph glyph-name="parenleft" unicode="(" horiz-adv-x="356" 
d="M230 -207q-26 32 -54.5 78.5t-52 106t-38.5 131.5t-15 155q0 86 15 160t38.5 134t52 106.5t54.5 78.5h87q-35 -48 -64 -99t-49.5 -109t-32 -125t-11.5 -146q0 -77 11.5 -142t32 -122.5t49.5 -108t64 -98.5h-87z" />
    <glyph glyph-name="parenright" unicode=")" horiz-adv-x="356" 
d="M285 264q0 -83 -15 -155t-38.5 -131.5t-51.5 -106t-54 -78.5h-88q36 48 65 99t49.5 108.5t32 124.5t11.5 146q0 76 -11.5 141.5t-32 123t-49.5 108.5t-65 99h88q26 -32 54 -78.5t51.5 -106.5t38.5 -134t15 -160z" />
    <glyph glyph-name="asterisk" unicode="*" horiz-adv-x="532" 
d="M394 578q-17 -5 -35.5 -10t-38.5 -9q14 -14 26 -28.5t23 -28.5l43 -59l-63 -46l-43 59q-11 15 -21 31t-20 33q-9 -17 -19.5 -33t-20.5 -30l-42 -60l-64 46l43 60q10 14 22 28.5t26 28.5q-19 4 -37 9t-35 10l-70 22l24 75l70 -23q17 -5 35 -12t35 -15q-2 19 -3.5 38
t-1.5 36v74h78v-74q0 -37 -6 -76q18 9 36 15.5t35 12.5l70 24l24 -75z" />
    <glyph glyph-name="plus" unicode="+" horiz-adv-x="702" 
d="M388 354v-215h-73v215h-215v73h215v215h73v-215h213v-73h-213z" />
    <glyph glyph-name="comma" unicode="," horiz-adv-x="277" 
d="M107 -89h-82l93 227h105z" />
    <glyph glyph-name="hyphen" unicode="-" horiz-adv-x="396" 
d="M74 255v75h247v-75h-247z" />
    <glyph glyph-name="period" unicode="." horiz-adv-x="252" 
d="M81 0v138h90v-138h-90z" />
    <glyph glyph-name="slash" unicode="/" horiz-adv-x="411" 
d="M97 0h-87l305 743h86z" />
    <glyph glyph-name="zero" unicode="0" horiz-adv-x="638" 
d="M580 299q0 -156 -68 -234.5t-193 -78.5t-193 78.5t-68 234.5v143q0 157 68 235t193 78t193 -78t68 -235v-143zM488 442q0 66 -12.5 111t-35 72t-53.5 39t-68 12q-36 0 -67 -12t-53.5 -39t-35.5 -72t-13 -111v-143q0 -66 13 -111t35.5 -72t53.5 -39t67 -12q37 0 68 12
t53.5 39t35 72t12.5 111v143z" />
    <glyph glyph-name="one" unicode="1" horiz-adv-x="559" 
d="M62 0v75l173 6v574l-174 -56v80l198 70h67v-668l172 -6v-75h-436z" />
    <glyph glyph-name="two" unicode="2" horiz-adv-x="590" 
d="M64 0v94q0 61 12.5 105t39.5 79t70 65t105 63q46 25 75.5 45t46 39.5t22.5 39.5t6 45q0 57 -38.5 79t-130.5 22q-46 0 -97.5 -4t-93.5 -11v71q15 3 36 7t47 7.5t54.5 6t58.5 2.5q130 0 193 -42t63 -138q0 -35 -9 -65t-30.5 -58.5t-58.5 -56t-93 -57.5q-59 -32 -95.5 -57
t-57 -51.5t-28 -58.5t-7.5 -76v-14h370v-81h-460z" />
    <glyph glyph-name="three" unicode="3" horiz-adv-x="597" 
d="M538 201q0 -61 -17.5 -102t-51 -66t-82 -36t-109.5 -11q-31 0 -62.5 3t-59 7.5t-49 8.5t-32.5 7v69q13 -2 36 -4.5t50 -5t57 -4.5t59 -2q42 0 73.5 5.5t53 20.5t32 41.5t10.5 68.5v25q0 25 -4 47t-16.5 38t-37.5 25.5t-67 9.5h-215v77h215q42 0 67 10t37.5 27t16.5 39.5
t4 47.5q0 38 -8 63t-27.5 39.5t-52.5 20.5t-82 6q-54 0 -107 -4.5t-91 -9.5v71q5 1 25 4.5t48.5 7.5t62 7t64.5 3q66 0 114.5 -10t81 -34t48.5 -64t16 -100q0 -50 -20.5 -94t-69.5 -68q50 -25 70 -66.5t20 -92.5v-25v0z" />
    <glyph glyph-name="four" unicode="4" horiz-adv-x="653" 
d="M491 196v-196h-92v196h-352v94l339 453h105v-467h113v-80h-113zM399 619l-260 -343h260v343z" />
    <glyph glyph-name="five" unicode="5" horiz-adv-x="585" 
d="M527 207q0 -120 -69.5 -170.5t-201.5 -50.5q-35 0 -68 3t-60.5 7t-47.5 8t-29 6v73q15 -2 38.5 -5t50.5 -6t56.5 -5t57.5 -2q50 0 84.5 7.5t56.5 24t31.5 43.5t9.5 67v29q0 37 -8 62.5t-28 41.5t-55.5 23t-90.5 7h-188l32 373h402v-82h-324l-19 -212h101q141 0 205 -50
t64 -163v-29v0z" />
    <glyph glyph-name="six" unicode="6" horiz-adv-x="631" 
d="M572 221q0 -76 -26.5 -122.5t-65 -71.5t-81.5 -33t-76 -8q-50 0 -97.5 8.5t-85 39t-60 89t-22.5 158.5v193q0 68 14 120.5t46.5 88t85.5 54t132 18.5q33 0 65 -2.5t59 -6t47.5 -7.5t31.5 -6v-72q-15 2 -38 4.5t-50 5t-56.5 4t-56.5 1.5q-65 0 -102 -14.5t-56.5 -41
t-24.5 -64t-5 -82.5v-35q18 5 41 9.5t46.5 7.5t46 4.5t40.5 1.5q47 0 91.5 -7t79.5 -28t56 -60t21 -104v-42zM480 259q0 42 -11 67.5t-31.5 39t-50 18t-67.5 4.5q-30 0 -76 -4t-94 -15v-93q0 -65 12 -106t34.5 -64.5t54.5 -32t72 -8.5q31 0 59.5 9t50.5 27.5t34.5 48
t12.5 71.5v38z" />
    <glyph glyph-name="seven" unicode="7" horiz-adv-x="576" 
d="M209 0h-103l341 661h-395v82h481v-98z" />
    <glyph glyph-name="eight" unicode="8" horiz-adv-x="654" 
d="M591 214q0 -82 -23.5 -127.5t-61 -68t-85.5 -27.5t-96 -5q-47 0 -94 5t-84.5 27.5t-61 68t-23.5 127.5q0 69 20.5 108t60.5 64q-36 22 -57 59.5t-21 96.5q0 68 23 110t60 65t84.5 30.5t95.5 7.5q47 0 93.5 -7.5t83.5 -30.5t60 -65t23 -110q0 -59 -21 -96.5t-57 -59.5
q40 -25 60.5 -64t20.5 -108zM499 214q-1 70 -23 101.5t-82 31.5h-135q-60 0 -82.5 -31.5t-22.5 -101.5q0 -51 12.5 -80.5t35.5 -44.5t55 -19.5t71 -4.5q37 0 68.5 4.5t54.5 19.5t35.5 44.5t12.5 80.5zM497 542q0 44 -13 70.5t-35.5 40.5t-54.5 18.5t-69 4.5q-36 0 -67 -4.5
t-53.5 -18.5t-35.5 -40.5t-13 -70.5q0 -55 21.5 -86t81.5 -31h135q60 0 81.5 31t21.5 86z" />
    <glyph glyph-name="nine" unicode="9" horiz-adv-x="631" 
d="M572 267q0 -68 -14 -120.5t-46.5 -88t-85.5 -54t-132 -18.5q-33 0 -65 2.5t-59 6t-48 7.5t-31 6v72q15 -2 38 -4.5t50 -5t56.5 -4t56.5 -1.5q64 0 101.5 14.5t57 41t24.5 64t5 82.5v35q-18 -5 -41 -9.5t-46.5 -7.5t-46 -4.5t-40.5 -1.5q-47 0 -91.5 7t-79.5 28t-56 60
t-21 104v42q0 76 26.5 122.5t65 71.5t81.5 33t76 8q50 0 97.5 -8.5t85 -39t60 -89t22.5 -158.5v-193zM480 465q0 65 -12 106t-34.5 64.5t-54.5 32t-72 8.5q-32 0 -60 -9t-50 -27.5t-34.5 -48t-12.5 -71.5v-38q0 -42 11 -67.5t31.5 -39t50 -18t67.5 -4.5q30 0 76 4t94 15v93z
" />
    <glyph glyph-name="colon" unicode=":" horiz-adv-x="258" 
d="M83 0v138h91v-138h-91zM83 412v138h91v-138h-91z" />
    <glyph glyph-name="semicolon" unicode=";" horiz-adv-x="268" 
d="M78 -89h-79l93 227h104zM93 412v138h91v-138h-91z" />
    <glyph glyph-name="less" unicode="&#x3c;" horiz-adv-x="702" 
d="M434 139l-290 252l290 251h123l-291 -251l291 -252h-123z" />
    <glyph glyph-name="equal" unicode="=" horiz-adv-x="702" 
d="M574 244h-447v74h447v-74zM127 464v75h447v-75h-447z" />
    <glyph glyph-name="greater" unicode="&#x3e;" horiz-adv-x="702" 
d="M266 139h-122l290 252l-290 251h122l291 -251z" />
    <glyph glyph-name="question" unicode="?" horiz-adv-x="472" 
d="M117 0v138h90v-138h-90zM30 764q37 10 79 16.5t86 6.5q100 0 154.5 -38.5t54.5 -132.5q0 -24 -5 -46t-17 -45.5t-32 -48.5t-50 -55q-34 -34 -53 -57.5t-28.5 -43.5t-11.5 -39.5t-2 -45.5v-42h-88v42q0 32 3 58t13 51.5t30 52t53 59.5q29 28 47.5 49.5t29 39.5t14.5 35
t4 36q0 57 -32 74.5t-92 17.5q-36 0 -76 -3.5t-81 -8.5v68z" />
    <glyph glyph-name="at" unicode="@" horiz-adv-x="834" 
d="M779 368q0 -68 -17.5 -125.5t-59 -99.5t-109.5 -65.5t-169 -23.5q-105 0 -152 37t-47 113q0 86 13.5 141t39 86.5t61.5 43.5t81 12q44 0 85.5 -5.5t77.5 -14.5l-33 -329q84 19 121 79.5t37 151.5q0 116 -62.5 171.5t-193.5 55.5q-68 0 -121 -15.5t-92 -50.5t-64.5 -91
t-39.5 -137q-5 -31 -8.5 -65.5t-3.5 -72.5q0 -46 11.5 -85t40 -68t77 -45.5t123.5 -16.5q30 0 60 1.5t55.5 3t42.5 3t20 1.5v-50l-24.5 -3.5t-41.5 -5t-53 -4.5t-58 -2q-89 0 -150 20t-99.5 56t-55.5 85.5t-17 109.5q0 39 3.5 76.5t8.5 68.5q15 93 46 159t79 107.5t113 61
t148 19.5q166 0 246.5 -75.5t80.5 -212.5zM491 409q-14 2 -34 3t-36 1q-26 0 -46.5 -6t-35.5 -28t-23 -63.5t-8 -111.5q0 -47 26 -64t88 -17h21.5t20.5 1z" />
    <glyph glyph-name="A" unicode="A" horiz-adv-x="663" 
d="M540 0l-77 243h-266l-79 -243h-93l243 743h127l243 -743h-98zM365 544q-10 30 -17 59.5t-13 62.5h-10q-7 -33 -13.5 -62.5t-16.5 -59.5l-71 -217h211z" />
    <glyph glyph-name="B" unicode="B" horiz-adv-x="639" 
d="M584 209q0 -67 -23.5 -108t-65 -63.5t-97.5 -30t-122 -7.5h-191v743h196q68 0 123 -7t94 -28.5t60.5 -61t21.5 -103.5q0 -24 -6 -47.5t-18 -45t-31 -39t-46 -28.5q55 -21 80 -66.5t25 -107.5zM491 209q0 31 -7.5 56.5t-26.5 43.5t-50.5 27.5t-80.5 9.5h-149v-265h99
q51 0 91 4.5t67.5 18t42 38.5t14.5 67zM487 543q0 42 -14 65.5t-40 35.5t-64.5 14.5t-87.5 2.5h-104v-236h149q48 0 79.5 8.5t49.5 24t25 37.5t7 48z" />
    <glyph glyph-name="C" unicode="C" horiz-adv-x="557" 
d="M527 3q-11 -2 -30 -5t-42 -5.5t-49 -4.5t-51 -2q-64 0 -118.5 14t-95 50t-63.5 99t-23 161v123q0 98 23 160.5t63.5 98.5t95 49.5t118.5 13.5q25 0 51 -2t49 -4.5t42 -5.5t30 -5v-75q-35 3 -82.5 6.5t-89.5 3.5q-53 0 -92 -12t-64.5 -39.5t-38.5 -73.5t-13 -115v-123
q0 -69 13 -115t38.5 -74t64.5 -40t92 -12q42 0 89.5 3t82.5 6v-75v0z" />
    <glyph glyph-name="D" unicode="D" horiz-adv-x="674" 
d="M619 312q0 -71 -17.5 -128.5t-56 -98.5t-100.5 -63t-152 -22h-208v743h208q87 0 148.5 -22t101 -62.5t58 -98t18.5 -127.5v-121zM526 433q0 63 -15 106.5t-45.5 70.5t-75.5 39t-105 12h-108v-580h108q60 0 105 12.5t75.5 40t45.5 71.5t15 107v121z" />
    <glyph glyph-name="E" unicode="E" horiz-adv-x="580" 
d="M85 0v743h440v-82h-348v-234h327v-83h-327v-263h348v-81h-440z" />
    <glyph glyph-name="F" unicode="F" horiz-adv-x="570" 
d="M177 661v-234h327v-83h-327v-344h-92v743h440v-82h-348z" />
    <glyph glyph-name="G" unicode="G" horiz-adv-x="634" 
d="M569 7q-23 -5 -82.5 -13t-136.5 -8q-62 0 -116 15.5t-93.5 52t-62.5 98t-23 154.5v131q0 98 25.5 160t67.5 97t95 48t108 13q40 0 78 -2.5t67.5 -6t49 -6.5t23.5 -4v-74q-17 1 -45 3t-58.5 4t-58 3t-43.5 1q-47 0 -87 -8.5t-68.5 -33.5t-44.5 -71.5t-16 -122.5v-131
q0 -71 14 -116.5t41.5 -72t67.5 -37t91 -10.5q32 0 62 0.5t53 2.5v313h92v-379v0z" />
    <glyph glyph-name="H" unicode="H" horiz-adv-x="726" 
d="M549 0v351h-372v-351h-92v743h92v-309h372v309h92v-743h-92z" />
    <glyph glyph-name="I" unicode="I" horiz-adv-x="262" 
d="M85 0v743h92v-743h-92z" />
    <glyph glyph-name="J" unicode="J" horiz-adv-x="261" 
d="M176 -60q0 -41 -7.5 -71t-25 -49.5t-47 -29t-73.5 -9.5q-19 0 -42 2.5t-32 5.5v69h16q41 0 65 1.5t36 9.5t15.5 24.5t3.5 46.5v803h91v-803v0z" />
    <glyph glyph-name="K" unicode="K" horiz-adv-x="634" 
d="M493 0l-311 358v-358h-92v743h92v-349l319 349h118l-335 -365l335 -378h-126z" />
    <glyph glyph-name="L" unicode="L" horiz-adv-x="542" 
d="M85 0v743h92v-662h340v-81h-432z" />
    <glyph glyph-name="M" unicode="M" horiz-adv-x="813" 
d="M637 0v483q0 40 1.5 70t3.5 68h-2q-13 -31 -26 -58t-27 -56l-125 -267h-113l-122 267q-13 29 -26 57t-27 57h-2q1 -38 2.5 -67.5t1.5 -70.5v-483h-91v743h121l154 -335q11 -24 22 -50t22 -50h2q11 25 23 51t23 51l156 333h120v-743h-91z" />
    <glyph glyph-name="N" unicode="N" horiz-adv-x="706" 
d="M490 0l-262 533q-14 28 -30 60.5t-30 65.5h-2q2 -37 3.5 -76.5t1.5 -78.5v-504h-86v743h132l259 -519q14 -27 30 -62t30 -65h2q-3 45 -4 86.5t-1 76.5v483h88v-743h-131z" />
    <glyph glyph-name="O" unicode="O" horiz-adv-x="684" 
d="M629 318q0 -160 -73.5 -246t-213.5 -86t-213.5 86t-73.5 246v106q0 160 73.5 245.5t213.5 85.5t213.5 -85.5t73.5 -245.5v-106zM536 424q0 68 -14.5 115.5t-40 77t-61 43t-78.5 13.5t-78.5 -13.5t-61 -43t-40 -77t-14.5 -115.5v-106q0 -68 14.5 -115.5t40 -77.5t61 -43.5
t78.5 -13.5t78.5 13.5t61 43.5t40 77.5t14.5 115.5v106z" />
    <glyph glyph-name="P" unicode="P" horiz-adv-x="605" 
d="M570 511q0 -83 -31.5 -128t-85 -66t-125 -24.5t-151.5 -3.5v-289h-92v743q36 0 71.5 0.5t70.5 0.5q70 0 132.5 -5t109 -28t74 -70t27.5 -130zM477 511q0 55 -16 85t-47.5 44.5t-78.5 17.5t-109 3h-49v-291h30q67 0 117.5 3t84.5 16.5t51 42t17 79.5z" />
    <glyph glyph-name="Q" unicode="Q" horiz-adv-x="684" 
d="M629 318q0 -146 -62.5 -230.5t-179.5 -98.5v-55q0 -15 2.5 -24.5t9.5 -15t20 -7.5t35 -2h85v-63q-11 -2 -44 -6t-67 -4q-29 0 -53.5 4.5t-41.5 18t-26.5 37t-9.5 62.5v55q-118 14 -180 98t-62 231v106q0 160 73.5 245.5t213.5 85.5t213.5 -85.5t73.5 -245.5v-106z
M536 424q0 68 -14.5 115.5t-40 77t-61 43t-78.5 13.5t-78.5 -13.5t-61 -43t-40 -77t-14.5 -115.5v-106q0 -68 14.5 -115.5t40 -77.5t61 -43.5t78.5 -13.5t78.5 13.5t61 43.5t40 77.5t14.5 115.5v106z" />
    <glyph glyph-name="R" unicode="R" horiz-adv-x="637" 
d="M508 0l-175 290q-15 -1 -34 -1h-36h-86v-289h-92v743h175q64 0 120.5 -8.5t98.5 -33.5t66.5 -69t24.5 -116q0 -89 -37.5 -137t-101.5 -70l186 -309h-109zM477 516q0 46 -13.5 74.5t-41 44.5t-68 21t-94.5 5h-83v-291h86q54 0 94.5 6.5t67 23t39.5 44.5t13 72z" />
    <glyph glyph-name="S" unicode="S" horiz-adv-x="585" 
d="M530 188q0 -97 -61 -149.5t-185 -52.5q-34 0 -67.5 2.5t-62 5.5t-50.5 6.5t-32 6.5v72q45 -5 97 -9t115 -4q76 0 114 28t38 94q0 44 -21 73t-80 56l-127 57q-74 33 -113.5 78.5t-39.5 122.5q0 92 60 136t183 44q33 0 65.5 -2t60 -5t48.5 -6.5t31 -6.5v-73q-17 2 -40.5 4
t-50.5 4t-55.5 3.5t-55.5 1.5q-74 0 -113.5 -21t-39.5 -79q0 -21 4.5 -38.5t16 -32t30.5 -27.5t49 -26l128 -56q39 -17 68 -37t48 -45t28.5 -55.5t9.5 -69.5z" />
    <glyph glyph-name="T" unicode="T" horiz-adv-x="610" 
d="M351 661v-661h-92v661h-229v82h550v-82h-229z" />
    <glyph glyph-name="U" unicode="U" horiz-adv-x="699" 
d="M619 309q0 -323 -269 -323q-270 0 -270 323v434h92v-424q0 -68 8.5 -115.5t29.5 -77.5t55 -43.5t85 -13.5t85 14t54.5 44t29.5 77.5t9 114.5v424h91v-434v0z" />
    <glyph glyph-name="V" unicode="V" horiz-adv-x="673" 
d="M398 0h-123l-245 743h98l176 -545q11 -32 18.5 -65.5t15.5 -62.5h2q7 29 14.5 62.5t18.5 65.5l176 545h94z" />
    <glyph glyph-name="W" unicode="W" horiz-adv-x="900" 
d="M721 0h-147l-101 460l-21 95h-3l-21 -95l-100 -460h-149l-134 743h98l87 -522l24 -148h5l32 147l89 413h144l90 -416l31 -144h5q5 38 10.5 73t12.5 75l88 522h94z" />
    <glyph glyph-name="X" unicode="X" horiz-adv-x="672" 
d="M530 0l-202 306l-196 -306h-102l247 378l-245 365h109l200 -300l194 300h102l-247 -369l252 -374h-112z" />
    <glyph glyph-name="Y" unicode="Y" horiz-adv-x="627" 
d="M359 294v-294h-91v294l-248 449h101l135 -245q14 -26 30 -57.5t27 -60.5h6q11 29 28.5 60.5t31.5 57.5l134 245h94z" />
    <glyph glyph-name="Z" unicode="Z" horiz-adv-x="624" 
d="M55 0v102l401 559h-386v82h485v-101l-400 -561h414v-81h-514z" />
    <glyph glyph-name="bracketleft" unicode="[" horiz-adv-x="404" 
d="M114 -208v951h232v-77h-143v-799h143v-75h-232z" />
    <glyph glyph-name="backslash" unicode="\" horiz-adv-x="442" 
d="M329 0l-304 743h86l305 -743h-87z" />
    <glyph glyph-name="bracketright" unicode="]" horiz-adv-x="404" 
d="M57 -208v75h143v800h-143v76h232v-951h-232z" />
    <glyph glyph-name="asciicircum" unicode="^" horiz-adv-x="702" 
d="M493 415l-143 286l-142 -286h-99l165 331h152l165 -331h-98z" />
    <glyph glyph-name="underscore" unicode="_" horiz-adv-x="574" 
d="M-6 -106v59h585v-59h-585z" />
    <glyph glyph-name="grave" unicode="`" horiz-adv-x="457" 
d="M204 616l-150 154h109l131 -154h-90z" />
    <glyph glyph-name="a" unicode="a" horiz-adv-x="545" 
d="M389 0v37q-25 -17 -69 -34t-106 -17q-78 0 -121 36.5t-43 119.5v20q0 54 18 87.5t51 52t79.5 24.5t104.5 6h82v40q0 36 -4.5 58.5t-18.5 35t-39.5 17.5t-66.5 5q-46 0 -85.5 -3.5t-84.5 -8.5v64q6 2 22.5 6t40 8t53 7t61.5 3q69 0 110.5 -12.5t64 -36.5t30 -60t7.5 -83
v-372h-86zM385 264h-82q-44 0 -74.5 -3.5t-50.5 -14.5t-29 -31t-9 -53v-27q0 -23 7 -38.5t19 -24.5t29 -12.5t37 -3.5q24 0 48 5t44.5 11.5t36 14t24.5 13.5v164z" />
    <glyph glyph-name="b" unicode="b" horiz-adv-x="578" 
d="M523 238q0 -132 -61 -192t-183 -60q-26 0 -47.5 1t-44.5 2.5t-49.5 4t-60.5 6.5v774h90v-245q37 20 75.5 28.5t72.5 8.5q107 0 157.5 -57t50.5 -177v-94zM433 333q0 83 -29.5 118.5t-99.5 35.5q-11 0 -27.5 -1t-35.5 -4.5t-38.5 -9t-35.5 -14.5v-387q19 -2 48 -3.5
t66 -1.5q39 0 67.5 8.5t47 29t28 53.5t9.5 82v94z" />
    <glyph glyph-name="c" unicode="c" horiz-adv-x="477" 
d="M432 5q-14 -5 -55.5 -12t-101.5 -7q-113 0 -166.5 65t-53.5 183v83q0 119 53.5 183t166.5 64q60 0 101.5 -7t55.5 -12v-68q-51 5 -86.5 7.5t-57.5 2.5q-33 0 -59.5 -7.5t-45 -26.5t-28.5 -52t-10 -84v-83q0 -51 10 -84.5t28.5 -52.5t45 -26.5t59.5 -7.5q22 0 57.5 2.5
t86.5 7.5v-68v0z" />
    <glyph glyph-name="d" unicode="d" horiz-adv-x="578" 
d="M414 0v28q-28 -17 -67 -29.5t-87 -12.5q-97 0 -151 56.5t-54 178.5v95q0 74 17.5 122t48 76t72 39t89.5 11q33 0 64.5 -3.5t64.5 -10.5v224h90v-774h-87zM411 475q-34 6 -67 9.5t-56 3.5q-33 0 -59.5 -6t-45 -24.5t-28.5 -52.5t-10 -89v-95q0 -82 31.5 -120t100.5 -38
q37 0 70 9.5t64 24.5v378z" />
    <glyph glyph-name="e" unicode="e" 
d="M145 242v-11q0 -36 4.5 -66.5t21.5 -53t50 -35t90 -12.5q23 0 48.5 1t51 3.5t49 5.5t43.5 6v-72q-29 -8 -78 -15t-118 -7q-73 0 -121.5 16.5t-77.5 49.5t-41 82.5t-12 116.5v42q0 131 57.5 201t175.5 70q122 0 179 -71t57 -211v-40h-379zM431 326q0 25 -4 53t-19 52
t-43 39.5t-76 15.5q-47 0 -75.5 -15.5t-43.5 -39.5t-19.5 -52t-4.5 -53v-10h285v10z" />
    <glyph glyph-name="f" unicode="f" horiz-adv-x="402" 
d="M214 475v-475h-90v475l-104 8v67h104v66q0 32 4 62.5t18.5 54.5t42.5 39t77 15q32 0 59.5 -4.5t46.5 -9.5v-61q-18 1 -43 2.5t-51 1.5q-23 0 -36 -6t-19 -18t-7.5 -31t-1.5 -45v-66h156v-75h-156z" />
    <glyph glyph-name="g" unicode="g" horiz-adv-x="578" 
d="M501 -31q0 -42 -8.5 -77.5t-31.5 -61t-64.5 -39.5t-107.5 -14q-32 0 -65 2.5t-61.5 6t-49 6.5t-26.5 5v65q45 -3 97 -5.5t105 -2.5q41 0 65 7.5t37 21.5t16.5 35.5t3.5 50.5v28q-14 -2 -47 -6t-64 -4q-58 0 -103.5 12.5t-77 42.5t-48 78.5t-16.5 120.5v69
q0 127 57.5 190.5t190.5 63.5q49 0 102.5 -4.5t95.5 -9.5v-581zM411 481q-8 2 -39 4.5t-69 2.5q-47 0 -77.5 -11t-48.5 -33.5t-25 -55.5t-7 -78v-69q0 -52 8.5 -86t27.5 -54.5t48.5 -29t71.5 -8.5q15 0 32.5 1t33 2.5t27.5 3t17 2.5v409z" />
    <glyph glyph-name="h" unicode="h" horiz-adv-x="596" 
d="M431 0v348q0 40 -5.5 67t-18 42.5t-32.5 22t-48 6.5q-48 0 -91.5 -13t-69.5 -26v-447h-89v774h89v-255q26 14 72.5 29.5t106.5 15.5q91 0 133.5 -52t42.5 -161v-351h-90z" />
    <glyph glyph-name="i" unicode="i" horiz-adv-x="256" 
d="M83 0v550h90v-550h-90zM83 652v122h91v-122h-91z" />
    <glyph glyph-name="j" unicode="j" horiz-adv-x="256" 
d="M173 -67q0 -44 -7 -74t-23.5 -48t-43 -26t-65.5 -8q-19 0 -39.5 1.5t-27.5 3.5v66q10 0 25.5 -0.5t33.5 -0.5t29.5 4t17.5 14t8 26.5t2 41.5v617h90v-617zM83 652v122h91v-122h-91z" />
    <glyph glyph-name="k" unicode="k" horiz-adv-x="522" 
d="M388 0l-222 273v-273h-89v774h89v-472l221 248h116l-238 -261l242 -289h-119z" />
    <glyph glyph-name="l" unicode="l" horiz-adv-x="255" 
d="M83 0v774h89v-774h-89z" />
    <glyph glyph-name="m" unicode="m" horiz-adv-x="856" 
d="M691 0v365q0 29 -1.5 51.5t-9 38.5t-24 24t-47.5 8q-29 0 -66 -12.5t-73 -33.5q3 -20 3.5 -39t0.5 -37v-365h-90v365q0 29 -1 51.5t-8 38.5t-22.5 24t-43.5 8q-36 0 -74.5 -15.5t-68.5 -32.5v-439h-89v550h89v-43q34 25 75.5 41t88.5 16q48 0 76.5 -16t44.5 -43
q48 32 90 45.5t80 13.5q60 0 92.5 -19t47.5 -48.5t17.5 -64.5t2.5 -67v-365h-90z" />
    <glyph glyph-name="n" unicode="n" horiz-adv-x="596" 
d="M431 0v351q0 37 -3.5 63t-14 42.5t-28.5 23.5t-46 7q-32 0 -75 -12.5t-98 -36.5v-438h-89v550h89v-43q48 25 92.5 41t90.5 16q55 0 88.5 -14.5t52 -42t25 -67t6.5 -89.5v-351h-90z" />
    <glyph glyph-name="o" unicode="o" 
d="M524 235q0 -121 -59 -185t-176 -64q-116 0 -175 64t-59 185v80q0 121 59 185t175 64q117 0 176 -64t59 -185v-80zM434 315q0 90 -34.5 130t-110.5 40q-75 0 -109.5 -40t-34.5 -130v-80q0 -90 34.5 -130t109.5 -40q76 0 110.5 40t34.5 130v80z" />
    <glyph glyph-name="p" unicode="p" horiz-adv-x="577" 
d="M522 254q0 -80 -18 -131.5t-49 -82t-74 -42.5t-92 -12q-28 0 -62.5 4.5t-60.5 11.5v-212h-89v760h86v-37q37 26 78.5 38.5t81.5 12.5q47 0 84 -14t62.5 -44.5t39 -79.5t13.5 -118v-54zM433 308q0 51 -8 85t-23.5 54.5t-38.5 29t-54 8.5q-16 0 -31.5 -2t-32 -6.5
t-36 -12.5t-43.5 -20v-367q34 -7 64.5 -11t58.5 -4q33 0 59.5 7.5t45.5 28.5t29 58.5t10 97.5v54z" />
    <glyph glyph-name="q" unicode="q" horiz-adv-x="578" 
d="M412 -210v235q-47 -22 -89 -30.5t-78 -8.5q-48 0 -84 14t-59.5 44.5t-35 79t-11.5 118.5v55q0 79 15.5 130.5t46.5 82t78 42.5t109 12q25 0 46.5 -0.5t43.5 -2.5t47.5 -5l59.5 -7v-759h-89zM411 480q-10 1 -24 1.5t-29.5 1.5t-30 1.5t-25.5 0.5q-39 0 -68.5 -6t-49 -25.5
t-29.5 -57t-10 -99.5v-55q0 -50 5.5 -83.5t19 -54.5t35.5 -30t55 -9q23 0 62 6.5t89 26.5v382z" />
    <glyph glyph-name="r" unicode="r" horiz-adv-x="376" 
d="M361 484q-27 0 -55 -3.5t-54 -10t-48 -15t-38 -18.5v-437h-89v550h88v-44q39 31 88.5 44.5t107.5 13.5v-80v0z" />
    <glyph glyph-name="s" unicode="s" horiz-adv-x="482" 
d="M442 139q0 -30 -9 -57.5t-32.5 -48.5t-63 -34t-100.5 -13q-29 0 -58 2.5t-54 6t-43 7.5t-25 6v69q12 -1 32 -3.5t44 -4.5t50 -4t51 -2q35 0 58 5t36.5 14t18.5 23t5 32t-4 31t-16 24.5t-34 22.5t-57 26l-40 17q-40 17 -68.5 34.5t-47 37.5t-27 43.5t-8.5 53.5
q0 69 47.5 103t151.5 34q28 0 54.5 -2t49 -5t38.5 -6.5t24 -6.5v-67q-44 5 -88.5 7.5t-73.5 2.5q-60 0 -86.5 -11t-26.5 -49q0 -16 4 -28t14.5 -22.5t29.5 -21t48 -23.5l40 -17q48 -21 80 -39.5t51 -38t27 -43t8 -55.5z" />
    <glyph glyph-name="t" unicode="t" horiz-adv-x="403" 
d="M373 1q-11 -4 -40 -9.5t-61 -5.5q-75 0 -105.5 31t-30.5 109v349l-111 8v67h111v143h90v-143h147v-75h-147v-345q0 -23 1.5 -37.5t7.5 -22t17 -10t30 -2.5q12 0 25 0.5t25.5 1t23.5 1.5t17 2v-62v0z" />
    <glyph glyph-name="u" unicode="u" horiz-adv-x="596" 
d="M429 0v43q-55 -28 -102 -42.5t-89 -14.5q-51 0 -83 16.5t-49.5 45.5t-24 67.5t-6.5 83.5v351h89v-351q0 -38 3.5 -63.5t14 -42t28.5 -23.5t47 -7q32 0 74.5 12.5t97.5 36.5v438h90v-550h-90z" />
    <glyph glyph-name="v" unicode="v" horiz-adv-x="536" 
d="M330 0h-124l-183 550h97l105 -338q13 -41 23.5 -77t21.5 -74q10 38 19.5 73.5t22.5 77.5l104 338h97z" />
    <glyph glyph-name="w" unicode="w" horiz-adv-x="831" 
d="M677 0h-127l-102 330q-12 39 -19 66t-11 45h-4q-4 -18 -11 -45t-19 -66l-102 -330h-127l-125 550h92l73 -340q8 -36 14 -71.5t8 -70.5h5q11 37 19.5 73t18.5 68l91 296h130l91 -296q10 -32 18.5 -68t19.5 -73h5q2 35 8 70.5t14 71.5l73 340h91z" />
    <glyph glyph-name="x" unicode="x" horiz-adv-x="534" 
d="M218 280l-184 270h101l136 -200l133 200h100l-186 -269l193 -281h-101l-144 210l-142 -210h-101z" />
    <glyph glyph-name="y" unicode="y" horiz-adv-x="547" 
d="M315 -49q-14 -40 -28.5 -72t-35.5 -54.5t-50 -35t-71 -12.5q-35 0 -64 3.5t-43 6.5v69q32 -2 54.5 -3t49.5 -1q20 0 34 5.5t24.5 18.5t20 33.5t20.5 50.5l15 40l-213 550h99l112 -309q13 -37 22.5 -69.5t23.5 -76.5q10 44 19.5 76.5t22.5 70.5l101 308h96z" />
    <glyph glyph-name="z" unicode="z" horiz-adv-x="488" 
d="M40 0v101l306 374h-293v75h389v-93l-311 -383h312v-74h-403z" />
    <glyph glyph-name="braceleft" unicode="{" horiz-adv-x="412" 
d="M288 -210q-54 0 -87 9.5t-51 27.5t-24.5 43.5t-6.5 58.5v184q0 25 -3 42.5t-10.5 30.5t-20 24.5t-31.5 24.5v63q19 13 31.5 24.5t20 24.5t10.5 30t3 42v185q0 34 6.5 60t24.5 43.5t51 26.5t87 9h63v-76h-63q-27 0 -43 -2.5t-24.5 -9.5t-10.5 -19.5t-2 -31.5v-185
q0 -57 -16 -92t-54 -61q37 -26 53.5 -61t16.5 -92v-184q0 -20 2 -32.5t10.5 -19.5t24.5 -9.5t43 -2.5h64v-75h-64z" />
    <glyph glyph-name="bar" unicode="|" horiz-adv-x="316" 
d="M113 -210v953h89v-953h-89z" />
    <glyph glyph-name="braceright" unicode="}" horiz-adv-x="412" 
d="M358 235q-19 -13 -31.5 -24.5t-20 -24.5t-10.5 -30.5t-3 -42.5v-184q0 -33 -6.5 -58.5t-24.5 -43.5t-51 -27.5t-87 -9.5h-64v75h64q27 0 43 2.5t24.5 9.5t10.5 19.5t2 32.5v184q0 57 16.5 92t53.5 61q-38 26 -54 61t-16 92v185q0 19 -2 31.5t-10.5 19.5t-24.5 9.5
t-43 2.5h-63v76h63q54 0 87 -9t51 -26.5t24.5 -43.5t6.5 -60v-185q0 -25 3 -42t10.5 -30t20 -24.5t31.5 -24.5v-63v0z" />
    <glyph glyph-name="asciitilde" unicode="~" horiz-adv-x="702" 
d="M584 479q0 -30 -5 -55.5t-17.5 -43.5t-34 -28.5t-54.5 -10.5q-32 0 -60 8.5t-55 31.5l-63 51q-19 16 -31.5 24t-30.5 8q-28 0 -36 -17.5t-8 -51.5v-45h-72v45q0 31 6 56.5t19.5 44t36 28.5t55.5 10q31 0 53 -11.5t50 -34.5l60 -48q17 -14 34.5 -21.5t37.5 -7.5
q29 0 36 18.5t7 49.5v47h72v-47v0z" />
    <glyph glyph-name="uni00A0" unicode="&#xa0;" horiz-adv-x="191" 
 />
    <glyph glyph-name="exclamdown" unicode="&#xa1;" horiz-adv-x="251" 
d="M77 -225l10 581h78l9 -581h-97zM171 414h-91v135h91v-135z" />
    <glyph glyph-name="cent" unicode="&#xa2;" horiz-adv-x="496" 
d="M437 477q-51 5 -86.5 7.5t-57.5 2.5q-33 0 -59.5 -7.5t-45 -26.5t-28.5 -52t-10 -84v-83q0 -51 10 -84.5t28.5 -52.5t45 -26.5t59.5 -7.5q22 0 57.5 2.5t86.5 7.5v-68q-12 -4 -43 -10t-77 -8v-107h-82v109q-90 13 -132.5 76t-42.5 169v83q0 106 42.5 168.5t132.5 75.5
v107h82v-105q46 -2 77 -8t43 -10v-68z" />
    <glyph glyph-name="sterling" unicode="&#xa3;" horiz-adv-x="624" 
d="M558 663q-10 1 -29.5 3t-44.5 4t-53.5 3.5t-56.5 1.5q-47 0 -74.5 -9t-42 -29t-18.5 -53.5t-4 -82.5v-76h249v-76h-249v-153q0 -31 -9 -61.5t-27 -56.5h359v-78h-460v70q26 28 35.5 63.5t9.5 62.5v153h-78v76h78v76q0 62 9 109.5t34 79.5t69 48.5t113 16.5
q68 0 118.5 -7.5t71.5 -12.5v-72z" />
    <glyph glyph-name="currency" unicode="&#xa4;" horiz-adv-x="652" 
d="M513 129l-76 75q-25 -16 -54 -24.5t-57 -8.5q-29 0 -57.5 8t-54.5 25l-76 -74l-62 62l75 75q-16 25 -24.5 54.5t-8.5 57.5q0 30 8 58t25 54l-75 75l62 62l76 -74q26 17 54.5 24.5t57.5 7.5t57.5 -7.5t54.5 -24.5l75 73l63 -61l-75 -75q16 -26 24.5 -54.5t8.5 -57.5
q0 -61 -33 -112l75 -75zM459 379q0 28 -11 53t-29 43.5t-42 29t-51 10.5t-51 -10.5t-42.5 -29t-29 -43.5t-10.5 -53t11 -53t29 -43.5t42 -29t51 -10.5t51 10.5t42 29t29 43.5t11 53z" />
    <glyph glyph-name="yen" unicode="&#xa5;" horiz-adv-x="649" 
d="M370 239v-239h-91v239h-227v72h217l-54 99h-163v72h123l-144 261h101l135 -245q14 -26 30 -57.5t27 -60.5h6q11 29 28.5 60.5t31.5 57.5l134 245h94l-144 -261h122v-72h-162l-55 -99h217v-72h-226z" />
    <glyph glyph-name="brokenbar" unicode="&#xa6;" horiz-adv-x="316" 
d="M113 -207v396h89v-396h-89zM202 348h-89v395h89v-395z" />
    <glyph glyph-name="section" unicode="&#xa7;" horiz-adv-x="648" 
d="M105 -122q13 -2 35.5 -4t50.5 -4t59.5 -3.5t61.5 -1.5q44 0 73 7.5t46.5 22t24.5 36t7 49.5q0 21 -3 37.5t-14.5 32.5t-34.5 32.5t-63 37.5l-126 65q-73 38 -104 83.5t-31 108.5q0 20 5.5 48t19.5 54q-25 39 -25 100q0 86 56.5 131t186.5 45q67 0 122 -7t83 -13v-76
q-14 1 -36 3t-49 4.5t-56.5 4t-59.5 1.5q-45 0 -74.5 -6t-46.5 -17.5t-23.5 -29t-6.5 -40.5q0 -20 4 -37t15 -32t31 -29t52 -30l121 -59q46 -22 76 -45t47.5 -47.5t24.5 -51.5t7 -57q0 -21 -5 -46.5t-23 -57.5q28 -47 28 -107q0 -41 -13.5 -77t-42.5 -63t-75.5 -42.5
t-112.5 -15.5q-33 0 -66.5 2t-62.5 5t-51 6.5t-32 6.5v76zM468 173q0 26 -2.5 45t-13 34t-30.5 29t-55 31l-121 59q-16 8 -26.5 14.5t-19 12t-14.5 11t-13 10.5v-30q0 -29 2.5 -47.5t12.5 -31.5t28.5 -24.5t50.5 -27.5l124 -62q19 -9 39.5 -23t37.5 -25v25z" />
    <glyph glyph-name="dieresis" unicode="&#xa8;" horiz-adv-x="457" 
d="M303 643v118h81v-118h-81zM156 643h-82v118h82v-118z" />
    <glyph glyph-name="copyright" unicode="&#xa9;" horiz-adv-x="845" 
d="M768 377q0 -86 -26 -154t-72 -114.5t-110 -71t-140 -24.5t-140 24.5t-110.5 71t-72.5 114.5t-26 154q0 85 26 152.5t72.5 114.5t110.5 71.5t140 24.5t140 -24.5t110 -71.5t72 -114.5t26 -152.5zM696 377q0 69 -20.5 124t-57 93t-87 58.5t-111.5 20.5t-111.5 -20.5
t-87 -58.5t-56.5 -93t-20 -124q0 -70 20 -125t56.5 -93.5t87 -59t111.5 -20.5t111.5 20.5t87 59t57 93.5t20.5 125zM426 163q-88 0 -134.5 47t-46.5 136v62q0 91 46.5 136.5t134.5 45.5q14 0 30.5 -0.5t32 -2t28.5 -3.5t21 -4v-64q-32 4 -59 5.5t-49 1.5q-31 0 -51 -6
t-32 -20t-16.5 -36t-4.5 -53v-62q0 -31 4.5 -53t16.5 -36t32 -20.5t51 -6.5q22 0 49 1.5t59 5.5v-64q-8 -2 -21 -4t-28.5 -3.5t-32 -2t-30.5 -0.5z" />
    <glyph glyph-name="ordfeminine" unicode="&#xaa;" horiz-adv-x="433" 
d="M282 434v24q-17 -11 -46.5 -21.5t-70.5 -10.5q-47 0 -77.5 23t-30.5 74v10q0 35 13.5 55.5t36.5 31t54.5 13.5t66.5 3h50v19q0 20 -3 32.5t-11.5 20t-24.5 10.5t-42 3q-14 0 -31 -1t-33 -2t-30 -2t-21 -2v47q11 3 46 9.5t80 6.5t73 -7.5t43.5 -22.5t21.5 -38t6 -54v-221
h-70zM279 588h-51q-54 0 -76.5 -9t-22.5 -45v-13q0 -27 16.5 -33t40.5 -6q29 0 55.5 9t37.5 16v81z" />
    <glyph glyph-name="guillemotleft" unicode="&#xab;" horiz-adv-x="676" 
d="M513 81l-163 208l163 206h106l-158 -206l158 -208h-106zM325 81h-106l-163 208l163 206h106l-158 -206z" />
    <glyph glyph-name="logicalnot" unicode="&#xac;" horiz-adv-x="702" 
d="M499 244v220h-372v75h447v-295h-75z" />
    <glyph glyph-name="uni00AD" unicode="&#xad;" horiz-adv-x="396" 
d="M74 255v75h247v-75h-247z" />
    <glyph glyph-name="registered" unicode="&#xae;" horiz-adv-x="682" 
d="M607 476q0 -64 -19 -116.5t-53.5 -89.5t-84.5 -57t-111 -20q-62 0 -111.5 20t-84 57t-53.5 89.5t-19 116.5t19 116.5t53.5 89.5t84 57t111.5 20q61 0 111 -20t84.5 -57t53.5 -89.5t19 -116.5zM546 476q0 107 -55 167t-152 60q-98 0 -153 -60t-55 -167q0 -109 55 -168.5
t153 -59.5q97 0 152 59.5t55 168.5zM407 325l-80 119h-17h-17v-119h-63v321q13 0 23 0.5t19.5 0.5h20h24.5q30 0 56 -3.5t44.5 -14t29.5 -29.5t11 -50v-3q0 -72 -64 -92l89 -130h-76zM394 550q0 32 -19.5 39t-57.5 7h-24v-103h25q38 0 57 11t19 43v3z" />
    <glyph glyph-name="macron" unicode="&#xaf;" horiz-adv-x="457" 
d="M57 655v70h343v-70h-343z" />
    <glyph glyph-name="degree" unicode="&#xb0;" horiz-adv-x="454" 
d="M401 581q0 -36 -13.5 -67.5t-37.5 -54.5t-55.5 -36.5t-67.5 -13.5t-67.5 13.5t-55 36.5t-37 54.5t-13.5 67.5t13.5 67.5t37 55t55 37t67.5 13.5t67.5 -13.5t55.5 -37t37.5 -55t13.5 -67.5zM325 581q0 45 -28.5 72.5t-70.5 27.5q-41 0 -69.5 -27.5t-28.5 -72.5
q0 -44 28.5 -72t69.5 -28q42 0 70.5 28t28.5 72z" />
    <glyph glyph-name="plusminus" unicode="&#xb1;" horiz-adv-x="702" 
d="M103 0v74h494v-74h-494zM388 384v-215h-73v215h-215v73h215v215h73v-215h213v-73h-213z" />
    <glyph glyph-name="uni00B2" unicode="&#xb2;" horiz-adv-x="445" 
d="M68 772q6 1 21.5 4t36 5t44.5 4t47 2q84 0 125 -26t41 -85q0 -23 -6.5 -41.5t-21 -35.5t-39 -33t-60.5 -34t-58.5 -31.5t-35 -27.5t-16.5 -30.5t-4 -40.5v-6h235v-64h-316v56q0 39 8 66.5t25 49.5t45 40t68 38q32 15 50.5 26.5t28.5 21.5t12.5 20t2.5 24q0 29 -21 40.5
t-72 11.5q-19 0 -40 -1t-40 -2.5t-35 -2.5t-25 -2v54z" />
    <glyph glyph-name="uni00B3" unicode="&#xb3;" horiz-adv-x="442" 
d="M205 323q-21 0 -44 2t-42.5 4t-34.5 4.5t-20 4.5v55q19 -2 58 -5t77 -3q50 0 74.5 14t24.5 59q0 18 -2.5 31.5t-10.5 23t-23 14.5t-41 5h-136v60h137q25 0 40.5 5.5t23 15t10 23t2.5 28.5q0 34 -20.5 47.5t-78.5 13.5q-38 0 -77 -3t-58 -5v55l20 4t34.5 5t42.5 4t44 2
q87 0 131 -26t44 -93q0 -34 -13 -62.5t-44 -43.5q32 -14 44.5 -41t12.5 -65q0 -73 -44.5 -103t-130.5 -30z" />
    <glyph glyph-name="acute" unicode="&#xb4;" horiz-adv-x="457" 
d="M241 616h-90l131 154h109z" />
    <glyph glyph-name="mu" unicode="&#xb5;" horiz-adv-x="645" 
d="M454 0v43q-55 -28 -102 -42.5t-89 -14.5q-43 0 -73 12v-208h-90v760h89v-351q0 -38 3.5 -63.5t14 -42t28.5 -23.5t47 -7q32 0 74.5 12.5t97.5 36.5v438h90v-550h-90z" />
    <glyph glyph-name="paragraph" unicode="&#xb6;" horiz-adv-x="736" 
d="M429 257h-46q-68 0 -126 10t-100 36.5t-65.5 73t-23.5 118.5v10q0 76 24 122.5t67 72t102.5 34.5t130.5 9h262v-941h-84v864h-57v-864h-84v455z" />
    <glyph glyph-name="periodcentered" unicode="&#xb7;" horiz-adv-x="252" 
d="M80 300v138h91v-138h-91z" />
    <glyph glyph-name="cedilla" unicode="&#xb8;" horiz-adv-x="457" 
d="M165 -210h-92l116 142h112z" />
    <glyph glyph-name="uni00B9" unicode="&#xb9;" horiz-adv-x="430" 
d="M76 332v59l104 3v310l-105 -33v67l128 43h59v-387l104 -3v-59h-290z" />
    <glyph glyph-name="ordmasculine" unicode="&#xba;" horiz-adv-x="438" 
d="M381 585q0 -78 -41.5 -119t-120.5 -41t-120.5 41t-41.5 119v33q0 79 41.5 119t120.5 40t120.5 -40t41.5 -119v-33zM307 618q0 53 -20.5 75.5t-67.5 22.5q-46 0 -67 -22.5t-21 -75.5v-33q0 -53 20.5 -75.5t67.5 -22.5t67.5 22.5t20.5 75.5v33z" />
    <glyph glyph-name="guillemotright" unicode="&#xbb;" horiz-adv-x="676" 
d="M457 81h-106l158 208l-158 206h106l163 -206zM326 289l-164 -208h-106l159 208l-159 206h106z" />
    <glyph glyph-name="onequarter" unicode="&#xbc;" horiz-adv-x="943" 
d="M314 0h-90l473 743h90zM69 300v59l104 3v310l-105 -33v67l128 43h59v-387l104 -3v-59h-290zM734 0v110h-225v66l228 270h79v-275h70v-61h-70v-110h-82zM736 352l-152 -181h152v181z" />
    <glyph glyph-name="onehalf" unicode="&#xbd;" horiz-adv-x="1034" 
d="M314 0h-90l473 743h90zM69 300v59l104 3v310l-105 -33v67l128 43h59v-387l104 -3v-59h-290zM672 440q6 1 21.5 4t36 5t44.5 4t47 2q84 0 125 -26t41 -85q0 -23 -6.5 -42t-21 -36t-39 -33t-60.5 -34t-58.5 -31.5t-35 -27.5t-16.5 -30t-4 -40v-6h235v-64h-316v56
q0 39 8 66.5t25 49t45 39.5t68 38q32 15 50.5 26.5t28.5 22t12.5 20.5t2.5 24q0 29 -21 40.5t-72 11.5q-19 0 -40 -1t-40 -2.5t-35 -2.5t-25 -2v54z" />
    <glyph glyph-name="threequarters" unicode="&#xbe;" horiz-adv-x="989" 
d="M322 0h-90l474 743h90zM773 0v110h-225v66l228 270h79v-275h70v-61h-70v-110h-82zM775 352l-152 -181h152v181zM205 291q-21 0 -44 2t-42.5 4t-34.5 4.5t-20 4.5v55q19 -2 58 -5t77 -3q50 0 74.5 14t24.5 59q0 18 -2.5 31.5t-10.5 23t-23 14.5t-41 5h-136v60h137
q25 0 40.5 5.5t23 15t10 23t2.5 28.5q0 34 -20.5 47.5t-78.5 13.5q-38 0 -77 -3t-58 -5v55l20 4t34.5 5t42.5 4t44 2q87 0 131 -26t44 -93q0 -34 -13 -62.5t-44 -43.5q32 -14 44.5 -41t12.5 -65q0 -73 -44.5 -103t-130.5 -30z" />
    <glyph glyph-name="questiondown" unicode="&#xbf;" horiz-adv-x="472" 
d="M442 -214q-37 -10 -79 -16.5t-86 -6.5q-100 0 -154.5 37t-54.5 126v8q0 24 5 46t17 45.5t32 48.5t50 55q34 34 53 57.5t28.5 43.5t11.5 39.5t2 45.5v42h88v-42q0 -32 -3 -58t-13 -51.5t-30 -52t-53 -59.5q-29 -28 -47.5 -49.5t-29 -39.5t-14.5 -35t-4 -36v-8
q0 -51 32 -67.5t92 -16.5q36 0 76 3.5t81 8.5v-68zM265 412v138h90v-138h-90z" />
    <glyph glyph-name="Agrave" unicode="&#xc0;" horiz-adv-x="663" 
d="M540 0l-77 243h-266l-79 -243h-93l243 743h127l243 -743h-98zM365 544q-10 30 -17 59.5t-13 62.5h-10q-7 -33 -13.5 -62.5t-16.5 -59.5l-71 -217h211zM332 789l-150 154h109l131 -154h-90z" />
    <glyph glyph-name="Aacute" unicode="&#xc1;" horiz-adv-x="663" 
d="M540 0l-77 243h-266l-79 -243h-93l243 743h127l243 -743h-98zM365 544q-10 30 -17 59.5t-13 62.5h-10q-7 -33 -13.5 -62.5t-16.5 -59.5l-71 -217h211zM352 789h-90l131 154h109z" />
    <glyph glyph-name="Acircumflex" unicode="&#xc2;" horiz-adv-x="663" 
d="M540 0l-77 243h-266l-79 -243h-93l243 743h127l243 -743h-98zM365 544q-10 30 -17 59.5t-13 62.5h-10q-7 -33 -13.5 -62.5t-16.5 -59.5l-71 -217h211zM434 789l-105 105l-104 -105h-90l135 154h119l135 -154h-90z" />
    <glyph glyph-name="Atilde" unicode="&#xc3;" horiz-adv-x="663" 
d="M540 0l-77 243h-266l-79 -243h-93l243 743h127l243 -743h-98zM365 544q-10 30 -17 59.5t-13 62.5h-10q-7 -33 -13.5 -62.5t-16.5 -59.5l-71 -217h211zM529 907q0 -56 -21 -90t-76 -34q-28 0 -52 10.5t-50 30.5l-41 33q-17 14 -29 21t-28 7q-21 0 -28 -16t-7 -45v-34h-65
v34q0 57 23 90.5t77 33.5q29 0 50 -9t47 -29l42 -34q16 -13 29.5 -21t29.5 -8q22 0 28.5 15.5t6.5 44.5v34h64v-34v0z" />
    <glyph glyph-name="Adieresis" unicode="&#xc4;" horiz-adv-x="663" 
d="M540 0l-77 243h-266l-79 -243h-93l243 743h127l243 -743h-98zM365 544q-10 30 -17 59.5t-13 62.5h-10q-7 -33 -13.5 -62.5t-16.5 -59.5l-71 -217h211zM404 809v118h81v-118h-81zM257 809h-82v118h82v-118z" />
    <glyph glyph-name="Aring" unicode="&#xc5;" horiz-adv-x="663" 
d="M540 0l-77 243h-266l-79 -243h-93l243 743h127l243 -743h-98zM365 544q-10 30 -17 59.5t-13 62.5h-10q-7 -33 -13.5 -62.5t-16.5 -59.5l-71 -217h211zM448 879q0 -58 -33 -83.5t-82 -25.5q-25 0 -46.5 6t-37.5 19.5t-25 34t-9 49.5t9 49.5t25 34t37.5 19.5t46.5 6
q49 0 82 -25.5t33 -83.5zM388 879q0 32 -16 43.5t-39 11.5q-24 0 -40 -11.5t-16 -43.5q0 -31 16 -43t40 -12q23 0 39 12t16 43z" />
    <glyph glyph-name="AE" unicode="&#xc6;" horiz-adv-x="964" 
d="M470 0v243h-264l-77 -243h-94l240 743h634v-82h-348v-234h328v-83h-328v-263h348v-81h-439zM470 662h-132q-8 -28 -16 -55.5t-17 -56.5l-72 -225h237v337z" />
    <glyph glyph-name="Ccedilla" unicode="&#xc7;" horiz-adv-x="557" 
d="M527 3q-11 -2 -30 -5t-42 -5.5t-49 -4.5t-51 -2q-64 0 -118.5 14t-95 50t-63.5 99t-23 161v123q0 98 23 160.5t63.5 98.5t95 49.5t118.5 13.5q25 0 51 -2t49 -4.5t42 -5.5t30 -5v-75q-35 3 -82.5 6.5t-89.5 3.5q-53 0 -92 -12t-64.5 -39.5t-38.5 -73.5t-13 -115v-123
q0 -69 13 -115t38.5 -74t64.5 -40t92 -12q42 0 89.5 3t82.5 6v-75zM256 -210h-92l116 142h112z" />
    <glyph glyph-name="Egrave" unicode="&#xc8;" horiz-adv-x="580" 
d="M85 0v743h440v-82h-348v-234h327v-83h-327v-263h348v-81h-440zM281 789l-150 154h109l131 -154h-90z" />
    <glyph glyph-name="Eacute" unicode="&#xc9;" horiz-adv-x="580" 
d="M85 0v743h440v-82h-348v-234h327v-83h-327v-263h348v-81h-440zM340 789h-90l131 154h109z" />
    <glyph glyph-name="Ecircumflex" unicode="&#xca;" horiz-adv-x="580" 
d="M85 0v743h440v-82h-348v-234h327v-83h-327v-263h348v-81h-440zM410 789l-105 105l-104 -105h-90l135 154h119l135 -154h-90z" />
    <glyph glyph-name="Edieresis" unicode="&#xcb;" horiz-adv-x="580" 
d="M85 0v743h440v-82h-348v-234h327v-83h-327v-263h348v-81h-440zM380 809v118h81v-118h-81zM233 809h-82v118h82v-118z" />
    <glyph glyph-name="Igrave" unicode="&#xcc;" horiz-adv-x="262" 
d="M85 0v743h92v-743h-92zM138 789l-150 154h109l131 -154h-90z" />
    <glyph glyph-name="Iacute" unicode="&#xcd;" horiz-adv-x="262" 
d="M85 0v743h92v-743h-92zM157 788h-90l131 154h109z" />
    <glyph glyph-name="Icircumflex" unicode="&#xce;" horiz-adv-x="262" 
d="M85 0v743h92v-743h-92zM237 789l-105 105l-104 -105h-90l135 154h119l135 -154h-90z" />
    <glyph glyph-name="Idieresis" unicode="&#xcf;" horiz-adv-x="262" 
d="M85 0v743h92v-743h-92zM205 809v118h81v-118h-81zM58 809h-82v118h82v-118z" />
    <glyph glyph-name="Eth" unicode="&#xd0;" horiz-adv-x="674" 
d="M619 312q0 -71 -17.5 -128.5t-56 -98.5t-100.5 -63t-152 -22h-208v345h-53v81h53v317h208q87 0 148.5 -22t101 -62.5t58 -98t18.5 -127.5v-121zM526 433q0 63 -15 106.5t-45.5 70.5t-75.5 39t-105 12h-108v-235h150v-81h-150v-264h108q60 0 105 12.5t75.5 40t45.5 71.5
t15 107v121z" />
    <glyph glyph-name="Ntilde" unicode="&#xd1;" horiz-adv-x="706" 
d="M490 0l-262 533q-14 28 -30 60.5t-30 65.5h-2q2 -37 3.5 -76.5t1.5 -78.5v-504h-86v743h132l259 -519q14 -27 30 -62t30 -65h2q-3 45 -4 86.5t-1 76.5v483h88v-743h-131zM550 905q0 -56 -21 -90t-76 -34q-28 0 -52 10.5t-50 30.5l-41 33q-17 14 -29 21t-28 7
q-21 0 -28 -16t-7 -45v-34h-65v34q0 57 23 90.5t77 33.5q29 0 50 -9t47 -29l42 -34q16 -13 29.5 -21t29.5 -8q22 0 28.5 15.5t6.5 44.5v34h64v-34v0z" />
    <glyph glyph-name="Ograve" unicode="&#xd2;" horiz-adv-x="684" 
d="M629 318q0 -160 -73.5 -246t-213.5 -86t-213.5 86t-73.5 246v106q0 160 73.5 245.5t213.5 85.5t213.5 -85.5t73.5 -245.5v-106zM536 424q0 68 -14.5 115.5t-40 77t-61 43t-78.5 13.5t-78.5 -13.5t-61 -43t-40 -77t-14.5 -115.5v-106q0 -68 14.5 -115.5t40 -77.5t61 -43.5
t78.5 -13.5t78.5 13.5t61 43.5t40 77.5t14.5 115.5v106zM331 789l-150 154h109l131 -154h-90z" />
    <glyph glyph-name="Oacute" unicode="&#xd3;" horiz-adv-x="684" 
d="M629 318q0 -160 -73.5 -246t-213.5 -86t-213.5 86t-73.5 246v106q0 160 73.5 245.5t213.5 85.5t213.5 -85.5t73.5 -245.5v-106zM536 424q0 68 -14.5 115.5t-40 77t-61 43t-78.5 13.5t-78.5 -13.5t-61 -43t-40 -77t-14.5 -115.5v-106q0 -68 14.5 -115.5t40 -77.5t61 -43.5
t78.5 -13.5t78.5 13.5t61 43.5t40 77.5t14.5 115.5v106zM355 789h-90l131 154h109z" />
    <glyph glyph-name="Ocircumflex" unicode="&#xd4;" horiz-adv-x="684" 
d="M629 318q0 -160 -73.5 -246t-213.5 -86t-213.5 86t-73.5 246v106q0 160 73.5 245.5t213.5 85.5t213.5 -85.5t73.5 -245.5v-106zM536 424q0 68 -14.5 115.5t-40 77t-61 43t-78.5 13.5t-78.5 -13.5t-61 -43t-40 -77t-14.5 -115.5v-106q0 -68 14.5 -115.5t40 -77.5t61 -43.5
t78.5 -13.5t78.5 13.5t61 43.5t40 77.5t14.5 115.5v106zM446 788l-105 105l-104 -105h-90l135 154h119l135 -154h-90z" />
    <glyph glyph-name="Otilde" unicode="&#xd5;" horiz-adv-x="684" 
d="M629 318q0 -160 -73.5 -246t-213.5 -86t-213.5 86t-73.5 246v106q0 160 73.5 245.5t213.5 85.5t213.5 -85.5t73.5 -245.5v-106zM536 424q0 68 -14.5 115.5t-40 77t-61 43t-78.5 13.5t-78.5 -13.5t-61 -43t-40 -77t-14.5 -115.5v-106q0 -68 14.5 -115.5t40 -77.5t61 -43.5
t78.5 -13.5t78.5 13.5t61 43.5t40 77.5t14.5 115.5v106zM540 905q0 -56 -21 -90t-76 -34q-28 0 -52 10.5t-50 30.5l-41 33q-17 14 -29 21t-28 7q-21 0 -28 -16t-7 -45v-34h-65v34q0 57 23 90.5t77 33.5q29 0 50 -9t47 -29l42 -34q16 -13 29.5 -21t29.5 -8q22 0 28.5 15.5
t6.5 44.5v34h64v-34v0z" />
    <glyph glyph-name="Odieresis" unicode="&#xd6;" horiz-adv-x="684" 
d="M629 318q0 -160 -73.5 -246t-213.5 -86t-213.5 86t-73.5 246v106q0 160 73.5 245.5t213.5 85.5t213.5 -85.5t73.5 -245.5v-106zM536 424q0 68 -14.5 115.5t-40 77t-61 43t-78.5 13.5t-78.5 -13.5t-61 -43t-40 -77t-14.5 -115.5v-106q0 -68 14.5 -115.5t40 -77.5t61 -43.5
t78.5 -13.5t78.5 13.5t61 43.5t40 77.5t14.5 115.5v106zM416 810v118h81v-118h-81zM269 810h-82v118h82v-118z" />
    <glyph glyph-name="multiply" unicode="&#xd7;" horiz-adv-x="702" 
d="M501 188l-150 150l-152 -152l-51 51l152 153l-153 152l51 51l153 -152l151 152l52 -52l-152 -152l151 -150z" />
    <glyph glyph-name="Oslash" unicode="&#xd8;" horiz-adv-x="684" 
d="M629 318q0 -160 -73.5 -246t-213.5 -86q-115 0 -186 59l-32 -45h-95l76 106q-50 82 -50 212v106q0 160 73.5 245.5t213.5 85.5q57 0 103.5 -15t81.5 -44l33 46h95l-76 -106q50 -82 50 -212v-106zM475 623q-26 26 -59.5 38t-73.5 12q-43 0 -78.5 -13.5t-61 -43t-40 -77
t-14.5 -115.5v-106q0 -76 18 -127zM536 424q0 76 -18 127l-310 -433q26 -26 59.5 -38t74.5 -12q43 0 78.5 13.5t61 43.5t40 77.5t14.5 115.5v106z" />
    <glyph glyph-name="Ugrave" unicode="&#xd9;" horiz-adv-x="699" 
d="M619 309q0 -323 -269 -323q-270 0 -270 323v434h92v-424q0 -68 8.5 -115.5t29.5 -77.5t55 -43.5t85 -13.5t85 14t54.5 44t29.5 77.5t9 114.5v424h91v-434v0zM323 789l-150 154h109l131 -154h-90z" />
    <glyph glyph-name="Uacute" unicode="&#xda;" horiz-adv-x="699" 
d="M619 309q0 -323 -269 -323q-270 0 -270 323v434h92v-424q0 -68 8.5 -115.5t29.5 -77.5t55 -43.5t85 -13.5t85 14t54.5 44t29.5 77.5t9 114.5v424h91v-434v0zM379 790h-90l131 154h109z" />
    <glyph glyph-name="Ucircumflex" unicode="&#xdb;" horiz-adv-x="699" 
d="M619 309q0 -323 -269 -323q-270 0 -270 323v434h92v-424q0 -68 8.5 -115.5t29.5 -77.5t55 -43.5t85 -13.5t85 14t54.5 44t29.5 77.5t9 114.5v424h91v-434v0zM455 789l-105 105l-104 -105h-90l135 154h119l135 -154h-90z" />
    <glyph glyph-name="Udieresis" unicode="&#xdc;" horiz-adv-x="699" 
d="M619 309q0 -323 -269 -323q-270 0 -270 323v434h92v-424q0 -68 8.5 -115.5t29.5 -77.5t55 -43.5t85 -13.5t85 14t54.5 44t29.5 77.5t9 114.5v424h91v-434v0zM422 809v118h81v-118h-81zM275 809h-82v118h82v-118z" />
    <glyph glyph-name="Yacute" unicode="&#xdd;" horiz-adv-x="627" 
d="M359 294v-294h-91v294l-248 449h101l135 -245q14 -26 30 -57.5t27 -60.5h6q11 29 28.5 60.5t31.5 57.5l134 245h94zM347 789h-90l131 154h109z" />
    <glyph glyph-name="Thorn" unicode="&#xde;" horiz-adv-x="615" 
d="M85 0v743h92v-130h98q64 0 119.5 -8t96.5 -31.5t65 -66.5t24 -113v-13q0 -70 -23.5 -113.5t-65 -67.5t-97 -32.5t-119.5 -8.5h-98v-159h-92zM487 394q0 44 -13.5 71t-40 42t-66.5 20t-92 5h-98v-291h98q53 0 92.5 5t66 20t40 42.5t13.5 72.5v13z" />
    <glyph glyph-name="germandbls" unicode="&#xdf;" horiz-adv-x="626" 
d="M566 215q0 -50 -14 -91t-44 -70t-77 -45t-113 -16q-6 0 -21.5 0.5t-39.5 2.5v70q23 -1 37 -1h21q86 0 124.5 35t38.5 116v23q0 62 -39 96.5t-129 34.5h-53v71h53q44 0 73 9.5t46.5 27t25 41t7.5 52.5v11q0 28 -6.5 51.5t-22.5 40t-43 26t-69 9.5q-41 0 -69.5 -10.5
t-46.5 -35t-26.5 -65.5t-8.5 -102v-496h-90v496q0 69 13 123.5t41.5 91.5t74.5 56.5t112 19.5q60 0 103.5 -15.5t71 -43t41 -65t13.5 -81.5v-11q0 -56 -23.5 -97.5t-71.5 -63.5q53 -21 82 -64.5t29 -106.5v-24v0z" />
    <glyph glyph-name="agrave" unicode="&#xe0;" horiz-adv-x="545" 
d="M389 0v37q-25 -17 -69 -34t-106 -17q-78 0 -121 36.5t-43 119.5v20q0 54 18 87.5t51 52t79.5 24.5t104.5 6h82v40q0 36 -4.5 58.5t-18.5 35t-39.5 17.5t-66.5 5q-46 0 -85.5 -3.5t-84.5 -8.5v64q6 2 22.5 6t40 8t53 7t61.5 3q69 0 110.5 -12.5t64 -36.5t30 -60t7.5 -83
v-372h-86zM385 264h-82q-44 0 -74.5 -3.5t-50.5 -14.5t-29 -31t-9 -53v-27q0 -23 7 -38.5t19 -24.5t29 -12.5t37 -3.5q24 0 48 5t44.5 11.5t36 14t24.5 13.5v164zM257 616l-150 154h109l131 -154h-90z" />
    <glyph glyph-name="aacute" unicode="&#xe1;" horiz-adv-x="545" 
d="M389 0v37q-25 -17 -69 -34t-106 -17q-78 0 -121 36.5t-43 119.5v20q0 54 18 87.5t51 52t79.5 24.5t104.5 6h82v40q0 36 -4.5 58.5t-18.5 35t-39.5 17.5t-66.5 5q-46 0 -85.5 -3.5t-84.5 -8.5v64q6 2 22.5 6t40 8t53 7t61.5 3q69 0 110.5 -12.5t64 -36.5t30 -60t7.5 -83
v-372h-86zM385 264h-82q-44 0 -74.5 -3.5t-50.5 -14.5t-29 -31t-9 -53v-27q0 -23 7 -38.5t19 -24.5t29 -12.5t37 -3.5q24 0 48 5t44.5 11.5t36 14t24.5 13.5v164zM300 616h-90l131 154h109z" />
    <glyph glyph-name="acircumflex" unicode="&#xe2;" horiz-adv-x="545" 
d="M389 0v37q-25 -17 -69 -34t-106 -17q-78 0 -121 36.5t-43 119.5v20q0 54 18 87.5t51 52t79.5 24.5t104.5 6h82v40q0 36 -4.5 58.5t-18.5 35t-39.5 17.5t-66.5 5q-46 0 -85.5 -3.5t-84.5 -8.5v64q6 2 22.5 6t40 8t53 7t61.5 3q69 0 110.5 -12.5t64 -36.5t30 -60t7.5 -83
v-372h-86zM385 264h-82q-44 0 -74.5 -3.5t-50.5 -14.5t-29 -31t-9 -53v-27q0 -23 7 -38.5t19 -24.5t29 -12.5t37 -3.5q24 0 48 5t44.5 11.5t36 14t24.5 13.5v164zM379 616l-105 105l-104 -105h-90l135 154h119l135 -154h-90z" />
    <glyph glyph-name="atilde" unicode="&#xe3;" horiz-adv-x="545" 
d="M389 0v37q-25 -17 -69 -34t-106 -17q-78 0 -121 36.5t-43 119.5v20q0 54 18 87.5t51 52t79.5 24.5t104.5 6h82v40q0 36 -4.5 58.5t-18.5 35t-39.5 17.5t-66.5 5q-46 0 -85.5 -3.5t-84.5 -8.5v64q6 2 22.5 6t40 8t53 7t61.5 3q69 0 110.5 -12.5t64 -36.5t30 -60t7.5 -83
v-372h-86zM385 264h-82q-44 0 -74.5 -3.5t-50.5 -14.5t-29 -31t-9 -53v-27q0 -23 7 -38.5t19 -24.5t29 -12.5t37 -3.5q24 0 48 5t44.5 11.5t36 14t24.5 13.5v164zM473 736q0 -56 -21 -90t-76 -34q-28 0 -52 10.5t-50 30.5l-41 33q-17 14 -29 21t-28 7q-21 0 -28 -16t-7 -45
v-34h-65v34q0 57 23 90.5t77 33.5q29 0 50 -9t47 -29l42 -34q16 -13 29.5 -21t29.5 -8q22 0 28.5 15.5t6.5 44.5v34h64v-34v0z" />
    <glyph glyph-name="adieresis" unicode="&#xe4;" horiz-adv-x="545" 
d="M389 0v37q-25 -17 -69 -34t-106 -17q-78 0 -121 36.5t-43 119.5v20q0 54 18 87.5t51 52t79.5 24.5t104.5 6h82v40q0 36 -4.5 58.5t-18.5 35t-39.5 17.5t-66.5 5q-46 0 -85.5 -3.5t-84.5 -8.5v64q6 2 22.5 6t40 8t53 7t61.5 3q69 0 110.5 -12.5t64 -36.5t30 -60t7.5 -83
v-372h-86zM385 264h-82q-44 0 -74.5 -3.5t-50.5 -14.5t-29 -31t-9 -53v-27q0 -23 7 -38.5t19 -24.5t29 -12.5t37 -3.5q24 0 48 5t44.5 11.5t36 14t24.5 13.5v164zM349 643v118h81v-118h-81zM202 643h-82v118h82v-118z" />
    <glyph glyph-name="aring" unicode="&#xe5;" horiz-adv-x="545" 
d="M389 0v37q-25 -17 -69 -34t-106 -17q-78 0 -121 36.5t-43 119.5v20q0 54 18 87.5t51 52t79.5 24.5t104.5 6h82v40q0 36 -4.5 58.5t-18.5 35t-39.5 17.5t-66.5 5q-46 0 -85.5 -3.5t-84.5 -8.5v64q6 2 22.5 6t40 8t53 7t61.5 3q69 0 110.5 -12.5t64 -36.5t30 -60t7.5 -83
v-372h-86zM385 264h-82q-44 0 -74.5 -3.5t-50.5 -14.5t-29 -31t-9 -53v-27q0 -23 7 -38.5t19 -24.5t29 -12.5t37 -3.5q24 0 48 5t44.5 11.5t36 14t24.5 13.5v164zM401 711q0 -58 -33 -83.5t-82 -25.5q-25 0 -46.5 6t-37.5 19.5t-25 34t-9 49.5t9 49.5t25 34t37.5 19.5
t46.5 6q49 0 82 -25.5t33 -83.5zM341 711q0 32 -16 43.5t-39 11.5q-24 0 -40 -11.5t-16 -43.5q0 -31 16 -43t40 -12q23 0 39 12t16 43z" />
    <glyph glyph-name="ae" unicode="&#xe6;" horiz-adv-x="909" 
d="M834 8q-29 -8 -80.5 -15t-114.5 -7q-78 0 -127.5 17.5t-77.5 50.5q-51 -35 -102.5 -51.5t-117.5 -16.5q-78 0 -121 36.5t-43 119.5v20q0 54 18 87.5t51 52t79.5 24.5t104.5 6h82v40q0 36 -4.5 58.5t-18.5 35t-39.5 17.5t-66.5 5q-46 0 -85.5 -3.5t-84.5 -8.5v64
q6 2 22.5 6t40 8t53 7t61.5 3q43 0 74 -4t52 -12t34.5 -19.5t23.5 -26.5q28 29 68.5 45t103.5 16q121 0 178 -71t57 -202v-48h-378v-11q0 -35 4 -66t20.5 -54t49.5 -36t91 -13q56 0 103 5t90 13v-72zM762 326q0 25 -4.5 53t-19 52t-43 39.5t-76.5 15.5q-47 0 -75 -15.5
t-43 -39.5t-19.5 -52t-4.5 -53v-10h285v10zM385 264h-82q-44 0 -74.5 -3.5t-50.5 -14.5t-29 -31t-9 -53v-27q0 -23 7 -38.5t19 -24.5t29 -12.5t37 -3.5q24 0 48 5t44.5 11.5t36 14t24.5 13.5v164z" />
    <glyph glyph-name="ccedilla" unicode="&#xe7;" horiz-adv-x="477" 
d="M432 5q-14 -5 -55.5 -12t-101.5 -7q-113 0 -166.5 65t-53.5 183v83q0 119 53.5 183t166.5 64q60 0 101.5 -7t55.5 -12v-68q-51 5 -86.5 7.5t-57.5 2.5q-33 0 -59.5 -7.5t-45 -26.5t-28.5 -52t-10 -84v-83q0 -51 10 -84.5t28.5 -52.5t45 -26.5t59.5 -7.5q22 0 57.5 2.5
t86.5 7.5v-68zM199 -210h-92l116 142h112z" />
    <glyph glyph-name="egrave" unicode="&#xe8;" 
d="M145 242v-11q0 -36 4.5 -66.5t21.5 -53t50 -35t90 -12.5q23 0 48.5 1t51 3.5t49 5.5t43.5 6v-72q-29 -8 -78 -15t-118 -7q-73 0 -121.5 16.5t-77.5 49.5t-41 82.5t-12 116.5v42q0 131 57.5 201t175.5 70q122 0 179 -71t57 -211v-40h-379zM431 326q0 25 -4 53t-19 52
t-43 39.5t-76 15.5q-47 0 -75.5 -15.5t-43.5 -39.5t-19.5 -52t-4.5 -53v-10h285v10zM286 616l-150 154h109l131 -154h-90z" />
    <glyph glyph-name="eacute" unicode="&#xe9;" 
d="M145 242v-11q0 -36 4.5 -66.5t21.5 -53t50 -35t90 -12.5q23 0 48.5 1t51 3.5t49 5.5t43.5 6v-72q-29 -8 -78 -15t-118 -7q-73 0 -121.5 16.5t-77.5 49.5t-41 82.5t-12 116.5v42q0 131 57.5 201t175.5 70q122 0 179 -71t57 -211v-40h-379zM431 326q0 25 -4 53t-19 52
t-43 39.5t-76 15.5q-47 0 -75.5 -15.5t-43.5 -39.5t-19.5 -52t-4.5 -53v-10h285v10zM330 616h-90l131 154h109z" />
    <glyph glyph-name="ecircumflex" unicode="&#xea;" 
d="M145 242v-11q0 -36 4.5 -66.5t21.5 -53t50 -35t90 -12.5q23 0 48.5 1t51 3.5t49 5.5t43.5 6v-72q-29 -8 -78 -15t-118 -7q-73 0 -121.5 16.5t-77.5 49.5t-41 82.5t-12 116.5v42q0 131 57.5 201t175.5 70q122 0 179 -71t57 -211v-40h-379zM431 326q0 25 -4 53t-19 52
t-43 39.5t-76 15.5q-47 0 -75.5 -15.5t-43.5 -39.5t-19.5 -52t-4.5 -53v-10h285v10zM398 616l-105 105l-104 -105h-90l135 154h119l135 -154h-90z" />
    <glyph glyph-name="edieresis" unicode="&#xeb;" 
d="M145 242v-11q0 -36 4.5 -66.5t21.5 -53t50 -35t90 -12.5q23 0 48.5 1t51 3.5t49 5.5t43.5 6v-72q-29 -8 -78 -15t-118 -7q-73 0 -121.5 16.5t-77.5 49.5t-41 82.5t-12 116.5v42q0 131 57.5 201t175.5 70q122 0 179 -71t57 -211v-40h-379zM431 326q0 25 -4 53t-19 52
t-43 39.5t-76 15.5q-47 0 -75.5 -15.5t-43.5 -39.5t-19.5 -52t-4.5 -53v-10h285v10zM364 643v118h81v-118h-81zM217 643h-82v118h82v-118z" />
    <glyph glyph-name="igrave" unicode="&#xec;" horiz-adv-x="256" 
d="M83 0v550h90v-550h-90zM116 616l-150 154h109l131 -154h-90z" />
    <glyph glyph-name="iacute" unicode="&#xed;" horiz-adv-x="256" 
d="M83 0v550h90v-550h-90zM139 616h-90l131 154h109z" />
    <glyph glyph-name="icircumflex" unicode="&#xee;" horiz-adv-x="256" 
d="M83 0v550h90v-550h-90zM234 616l-105 105l-104 -105h-90l135 154h119l135 -154h-90z" />
    <glyph glyph-name="idieresis" unicode="&#xef;" horiz-adv-x="256" 
d="M83 0v550h90v-550h-90zM204 643v118h81v-118h-81zM57 643h-82v118h82v-118z" />
    <glyph glyph-name="eth" unicode="&#xf0;" 
d="M524 236q0 -122 -59 -185.5t-176 -63.5q-116 0 -175 63.5t-59 185.5v67q0 123 59 186t175 63q66 0 114 -28q-17 47 -45.5 82.5t-71.5 58.5l-134 -87l-36 48l101 69q-28 7 -58.5 11t-62.5 4h-9t-14 -1v72q8 1 15.5 1h12.5q56 0 103.5 -8.5t87.5 -24.5l80 51l37 -47
l-53 -37q88 -58 128 -163.5t40 -249.5v-67zM434 303q0 92 -34.5 132t-110.5 40q-75 0 -109.5 -40t-34.5 -132v-67q0 -91 34.5 -131t109.5 -40q76 0 110.5 39.5t34.5 131.5v67z" />
    <glyph glyph-name="ntilde" unicode="&#xf1;" horiz-adv-x="596" 
d="M431 0v351q0 37 -3.5 63t-14 42.5t-28.5 23.5t-46 7q-32 0 -75 -12.5t-98 -36.5v-438h-89v550h89v-43q48 25 92.5 41t90.5 16q55 0 88.5 -14.5t52 -42t25 -67t6.5 -89.5v-351h-90zM495 736q0 -56 -21 -90t-76 -34q-28 0 -52 10.5t-50 30.5l-41 33q-17 14 -29 21t-28 7
q-21 0 -28 -16t-7 -45v-34h-65v34q0 57 23 90.5t77 33.5q29 0 50 -9t47 -29l42 -34q16 -13 29.5 -21t29.5 -8q22 0 28.5 15.5t6.5 44.5v34h64v-34v0z" />
    <glyph glyph-name="ograve" unicode="&#xf2;" 
d="M524 235q0 -121 -59 -185t-176 -64q-116 0 -175 64t-59 185v80q0 121 59 185t175 64q117 0 176 -64t59 -185v-80zM434 315q0 90 -34.5 130t-110.5 40q-75 0 -109.5 -40t-34.5 -130v-80q0 -90 34.5 -130t109.5 -40q76 0 110.5 40t34.5 130v80zM278 616l-150 154h109
l131 -154h-90z" />
    <glyph glyph-name="oacute" unicode="&#xf3;" 
d="M524 235q0 -121 -59 -185t-176 -64q-116 0 -175 64t-59 185v80q0 121 59 185t175 64q117 0 176 -64t59 -185v-80zM434 315q0 90 -34.5 130t-110.5 40q-75 0 -109.5 -40t-34.5 -130v-80q0 -90 34.5 -130t109.5 -40q76 0 110.5 40t34.5 130v80zM311 616h-90l131 154h109z
" />
    <glyph glyph-name="ocircumflex" unicode="&#xf4;" 
d="M524 235q0 -121 -59 -185t-176 -64q-116 0 -175 64t-59 185v80q0 121 59 185t175 64q117 0 176 -64t59 -185v-80zM434 315q0 90 -34.5 130t-110.5 40q-75 0 -109.5 -40t-34.5 -130v-80q0 -90 34.5 -130t109.5 -40q76 0 110.5 40t34.5 130v80zM394 616l-105 105l-104 -105
h-90l135 154h119l135 -154h-90z" />
    <glyph glyph-name="otilde" unicode="&#xf5;" 
d="M524 235q0 -121 -59 -185t-176 -64q-116 0 -175 64t-59 185v80q0 121 59 185t175 64q117 0 176 -64t59 -185v-80zM434 315q0 90 -34.5 130t-110.5 40q-75 0 -109.5 -40t-34.5 -130v-80q0 -90 34.5 -130t109.5 -40q76 0 110.5 40t34.5 130v80zM488 736q0 -56 -21 -90
t-76 -34q-28 0 -52 10.5t-50 30.5l-41 33q-17 14 -29 21t-28 7q-21 0 -28 -16t-7 -45v-34h-65v34q0 57 23 90.5t77 33.5q29 0 50 -9t47 -29l42 -34q16 -13 29.5 -21t29.5 -8q22 0 28.5 15.5t6.5 44.5v34h64v-34v0z" />
    <glyph glyph-name="odieresis" unicode="&#xf6;" 
d="M524 235q0 -121 -59 -185t-176 -64q-116 0 -175 64t-59 185v80q0 121 59 185t175 64q117 0 176 -64t59 -185v-80zM434 315q0 90 -34.5 130t-110.5 40q-75 0 -109.5 -40t-34.5 -130v-80q0 -90 34.5 -130t109.5 -40q76 0 110.5 40t34.5 130v80zM363 643v118h81v-118h-81z
M216 643h-82v118h82v-118z" />
    <glyph glyph-name="divide" unicode="&#xf7;" horiz-adv-x="702" 
d="M305 117v134h92v-134h-92zM589 354h-477v74h477v-74zM305 528v133h92v-133h-92z" />
    <glyph glyph-name="oslash" unicode="&#xf8;" 
d="M524 235q0 -121 -59 -185t-176 -64q-83 0 -139 34l-34 -44h-93l73 96q-41 62 -41 163v80q0 121 58.5 185t175.5 64q91 0 150 -42l40 52h93l-83 -108q35 -61 35 -151v-80zM434 315q0 20 -2 37t-5 32l-227 -297q34 -22 89 -22q75 0 110 40t35 130v80zM388 455
q-35 30 -99 30q-75 0 -109.5 -40t-34.5 -130v-80q0 -52 10 -85z" />
    <glyph glyph-name="ugrave" unicode="&#xf9;" horiz-adv-x="596" 
d="M429 0v43q-55 -28 -102 -42.5t-89 -14.5q-51 0 -83 16.5t-49.5 45.5t-24 67.5t-6.5 83.5v351h89v-351q0 -38 3.5 -63.5t14 -42t28.5 -23.5t47 -7q32 0 74.5 12.5t97.5 36.5v438h90v-550h-90zM275 616l-150 154h109l131 -154h-90z" />
    <glyph glyph-name="uacute" unicode="&#xfa;" horiz-adv-x="596" 
d="M429 0v43q-55 -28 -102 -42.5t-89 -14.5q-51 0 -83 16.5t-49.5 45.5t-24 67.5t-6.5 83.5v351h89v-351q0 -38 3.5 -63.5t14 -42t28.5 -23.5t47 -7q32 0 74.5 12.5t97.5 36.5v438h90v-550h-90zM334 616h-90l131 154h109z" />
    <glyph glyph-name="ucircumflex" unicode="&#xfb;" horiz-adv-x="596" 
d="M429 0v43q-55 -28 -102 -42.5t-89 -14.5q-51 0 -83 16.5t-49.5 45.5t-24 67.5t-6.5 83.5v351h89v-351q0 -38 3.5 -63.5t14 -42t28.5 -23.5t47 -7q32 0 74.5 12.5t97.5 36.5v438h90v-550h-90zM404 616l-105 105l-104 -105h-90l135 154h119l135 -154h-90z" />
    <glyph glyph-name="udieresis" unicode="&#xfc;" horiz-adv-x="596" 
d="M429 0v43q-55 -28 -102 -42.5t-89 -14.5q-51 0 -83 16.5t-49.5 45.5t-24 67.5t-6.5 83.5v351h89v-351q0 -38 3.5 -63.5t14 -42t28.5 -23.5t47 -7q32 0 74.5 12.5t97.5 36.5v438h90v-550h-90zM373 643v118h81v-118h-81zM226 643h-82v118h82v-118z" />
    <glyph glyph-name="yacute" unicode="&#xfd;" horiz-adv-x="547" 
d="M315 -49q-14 -40 -28.5 -72t-35.5 -54.5t-50 -35t-71 -12.5q-35 0 -64 3.5t-43 6.5v69q32 -2 54.5 -3t49.5 -1q20 0 34 5.5t24.5 18.5t20 33.5t20.5 50.5l15 40l-213 550h99l112 -309q13 -37 22.5 -69.5t23.5 -76.5q10 44 19.5 76.5t22.5 70.5l101 308h96zM312 616h-90
l131 154h109z" />
    <glyph glyph-name="thorn" unicode="&#xfe;" horiz-adv-x="577" 
d="M77 -210v984h89v-260q39 26 75.5 38t77.5 12q98 0 150.5 -58.5t52.5 -183.5v-84q0 -72 -18 -120t-49 -77.5t-73.5 -41.5t-91.5 -12q-29 0 -59.5 4t-64.5 11v-212h-89zM433 322q0 87 -31.5 125t-92.5 38q-16 0 -31.5 -2t-32 -6.5t-36 -12.5t-43.5 -20v-367q34 -6 67.5 -10
t55.5 -4q33 0 59.5 7.5t45.5 27t29 53.5t10 87v84z" />
    <glyph glyph-name="ydieresis" unicode="&#xff;" horiz-adv-x="547" 
d="M315 -49q-14 -40 -28.5 -72t-35.5 -54.5t-50 -35t-71 -12.5q-35 0 -64 3.5t-43 6.5v69q32 -2 54.5 -3t49.5 -1q20 0 34 5.5t24.5 18.5t20 33.5t20.5 50.5l15 40l-213 550h99l112 -309q13 -37 22.5 -69.5t23.5 -76.5q10 44 19.5 76.5t22.5 70.5l101 308h96zM359 643v118
h81v-118h-81zM212 643h-82v118h82v-118z" />
    <glyph glyph-name="dotlessi" unicode="&#x131;" horiz-adv-x="256" 
d="M83 0v550h90v-550h-90z" />
    <glyph glyph-name="OE" unicode="&#x152;" horiz-adv-x="962" 
d="M907 0h-422q-18 -3 -33.5 -5.5t-31 -4.5t-33 -3t-40.5 -1q-146 0 -219 86t-73 246v106q0 160 73 245.5t218 85.5q43 0 73.5 -3.5t65.5 -8.5h422v-82h-348v-234h327v-83h-327v-263h348v-81zM467 662q-39 6 -64.5 8.5t-55.5 2.5q-45 0 -81.5 -13.5t-63 -43t-40.5 -77
t-14 -115.5v-106q0 -68 14.5 -115.5t40.5 -77.5t62.5 -43.5t81.5 -13.5q15 0 28 0.5t26.5 1.5t29 3t36.5 5v584z" />
    <glyph glyph-name="oe" unicode="&#x153;" horiz-adv-x="958" 
d="M524 242v-11q0 -35 4 -66t20.5 -54t50 -36t91.5 -13q55 0 102 5t90 13v-72q-29 -8 -80.5 -15t-114.5 -7q-85 0 -134.5 21.5t-75.5 56.5q-29 -38 -75.5 -58t-112.5 -20q-116 0 -175 64t-59 185v80q0 121 59 185t175 64q67 0 114.5 -21.5t76.5 -59.5q28 39 75 60t112 21
q121 0 178.5 -72t57.5 -202v-48h-379zM810 326q0 25 -4 53.5t-19 52.5t-43 39.5t-76 15.5q-47 0 -75 -15t-43 -37t-20 -47t-5 -46v-26h285v10zM434 315q0 90 -34.5 131t-110.5 41q-75 0 -109.5 -41t-34.5 -131v-80q0 -90 34.5 -130.5t109.5 -40.5q76 0 110.5 40.5
t34.5 130.5v80z" />
    <glyph glyph-name="Scaron" unicode="&#x160;" horiz-adv-x="585" 
d="M530 188q0 -97 -61 -149.5t-185 -52.5q-34 0 -67.5 2.5t-62 5.5t-50.5 6.5t-32 6.5v72q45 -5 97 -9t115 -4q76 0 114 28t38 94q0 44 -21 73t-80 56l-127 57q-74 33 -113.5 78.5t-39.5 122.5q0 92 60 136t183 44q33 0 65.5 -2t60 -5t48.5 -6.5t31 -6.5v-73q-17 2 -40.5 4
t-50.5 4t-55.5 3.5t-55.5 1.5q-74 0 -113.5 -21t-39.5 -79q0 -21 4.5 -38.5t16 -32t30.5 -27.5t49 -26l128 -56q39 -17 68 -37t48 -45t28.5 -55.5t9.5 -69.5zM188 942l104 -106l105 106h90l-135 -154h-119l-135 154h90z" />
    <glyph glyph-name="scaron" unicode="&#x161;" horiz-adv-x="482" 
d="M442 139q0 -30 -9 -57.5t-32.5 -48.5t-63 -34t-100.5 -13q-29 0 -58 2.5t-54 6t-43 7.5t-25 6v69q12 -1 32 -3.5t44 -4.5t50 -4t51 -2q35 0 58 5t36.5 14t18.5 23t5 32t-4 31t-16 24.5t-34 22.5t-57 26l-40 17q-40 17 -68.5 34.5t-47 37.5t-27 43.5t-8.5 53.5
q0 69 47.5 103t151.5 34q28 0 54.5 -2t49 -5t38.5 -6.5t24 -6.5v-67q-44 5 -88.5 7.5t-73.5 2.5q-60 0 -86.5 -11t-26.5 -49q0 -16 4 -28t14.5 -22.5t29.5 -21t48 -23.5l40 -17q48 -21 80 -39.5t51 -38t27 -43t8 -55.5zM141 770l104 -106l105 106h90l-135 -154h-119
l-135 154h90z" />
    <glyph glyph-name="Ydieresis" unicode="&#x178;" horiz-adv-x="627" 
d="M359 294v-294h-91v294l-248 449h101l135 -245q14 -26 30 -57.5t27 -60.5h6q11 29 28.5 60.5t31.5 57.5l134 245h94zM390 809v118h81v-118h-81zM243 809h-82v118h82v-118z" />
    <glyph glyph-name="Zcaron" unicode="&#x17d;" horiz-adv-x="624" 
d="M55 0v102l401 559h-386v82h485v-101l-400 -561h414v-81h-514zM220 943l104 -106l105 106h90l-135 -154h-119l-135 154h90z" />
    <glyph glyph-name="zcaron" unicode="&#x17e;" horiz-adv-x="488" 
d="M40 0v101l306 374h-293v75h389v-93l-311 -383h312v-74h-403zM155 770l104 -106l105 106h90l-135 -154h-119l-135 154h90z" />
    <glyph glyph-name="florin" unicode="&#x192;" horiz-adv-x="638" 
d="M571 680q-23 2 -40.5 3.5t-34.5 1.5q-20 0 -34.5 -3t-25.5 -12.5t-18.5 -28t-11.5 -48.5l-23 -164h173l-11 -75h-175l-47 -337q-6 -47 -21 -77t-36 -47t-47.5 -24t-57.5 -7q-30 0 -55 3.5t-46 8.5l9 63q20 -2 39 -3.5t40 -1.5q16 0 30 2.5t25 12t18.5 27.5t12.5 49
l47 331h-156l11 75h157l24 170q7 46 21 76.5t35 48t49 24.5t62 7q26 0 50.5 -3.5t44.5 -8.5z" />
    <glyph glyph-name="circumflex" unicode="&#x2c6;" horiz-adv-x="457" 
d="M333 616l-105 105l-104 -105h-90l135 154h119l135 -154h-90z" />
    <glyph glyph-name="tilde" unicode="&#x2dc;" horiz-adv-x="457" 
d="M430 736q0 -56 -21 -90t-76 -34q-28 0 -52 10.5t-50 30.5l-41 33q-17 14 -29 21t-28 7q-21 0 -28 -16t-7 -45v-34h-65v34q0 57 23 90.5t77 33.5q29 0 50 -9t47 -29l42 -34q16 -13 29.5 -21t29.5 -8q22 0 28.5 15.5t6.5 44.5v34h64v-34v0z" />
    <glyph glyph-name="endash" unicode="&#x2013;" horiz-adv-x="504" 
d="M74 255v76h356v-76h-356z" />
    <glyph glyph-name="emdash" unicode="&#x2014;" horiz-adv-x="643" 
d="M74 255v76h495v-76h-495z" />
    <glyph glyph-name="quoteleft" unicode="&#x2018;" horiz-adv-x="183" 
d="M116 545h-96l75 229h68z" />
    <glyph glyph-name="quoteright" unicode="&#x2019;" horiz-adv-x="183" 
d="M89 545h-69l48 229h95z" />
    <glyph glyph-name="quotesinglbase" unicode="&#x201a;" horiz-adv-x="183" 
d="M89 -94h-69l48 228h95z" />
    <glyph glyph-name="quotedblleft" unicode="&#x201c;" horiz-adv-x="366" 
d="M298 545h-95l74 229h69zM163 774l-48 -229h-95l74 229h69z" />
    <glyph glyph-name="quotedblright" unicode="&#x201d;" horiz-adv-x="366" 
d="M272 545h-69l48 229h95zM163 774l-74 -229h-69l48 229h95z" />
    <glyph glyph-name="quotedblbase" unicode="&#x201e;" horiz-adv-x="366" 
d="M272 -94h-69l48 228h95zM163 134l-74 -228h-69l48 228h95z" />
    <glyph glyph-name="dagger" unicode="&#x2020;" horiz-adv-x="510" 
d="M293 481v-611h-89v611h-127v79h127v214h89v-214h140v-79h-140z" />
    <glyph glyph-name="daggerdbl" unicode="&#x2021;" horiz-adv-x="510" 
d="M293 268v-398h-89v398h-127v78h127v131h-127v79h127v214h89v-214h140v-79h-140v-131h140v-78h-140z" />
    <glyph glyph-name="bullet" unicode="&#x2022;" horiz-adv-x="533" 
d="M445 369q0 -37 -14 -69.5t-38.5 -56.5t-57 -38t-69.5 -14t-69.5 14t-56.5 38t-38 56.5t-14 69.5t14 69.5t38 57t56.5 38.5t69.5 14t69.5 -14t57 -38.5t38.5 -57t14 -69.5z" />
    <glyph glyph-name="ellipsis" unicode="&#x2026;" horiz-adv-x="822" 
d="M83 0v138h91v-138h-91zM366 0v138h90v-138h-90zM648 0v138h90v-138h-90z" />
    <glyph glyph-name="perthousand" unicode="&#x2030;" horiz-adv-x="1483" 
d="M1424 194q0 -101 -45.5 -152.5t-130.5 -51.5t-130.5 51.5t-45.5 152.5v57q0 101 45.5 152t130.5 51t130.5 -51t45.5 -152v-57zM1344 251q0 40 -7.5 66.5t-20.5 41.5t-30.5 21t-37.5 6t-37.5 -6t-30.5 -21t-20.5 -41.5t-7.5 -66.5v-57q0 -41 7.5 -67t20.5 -41.5
t30.5 -21.5t37.5 -6t37.5 6t30.5 21.5t20.5 41.5t7.5 67v57zM1009 194q0 -101 -45.5 -152.5t-130.5 -51.5t-130.5 51.5t-45.5 152.5v57q0 101 45.5 152t130.5 51t130.5 -51t45.5 -152v-57zM929 251q0 40 -7.5 66.5t-20.5 41.5t-30.5 21t-37.5 6t-37.5 -6t-30.5 -21
t-20.5 -41.5t-7.5 -66.5v-57q0 -41 7.5 -67t20.5 -41.5t30.5 -21.5t37.5 -6t37.5 6t30.5 21.5t20.5 41.5t7.5 67v57zM340 0h-90l474 743h90zM409 494q0 -45 -9 -83t-30 -65t-54.5 -42t-81.5 -15q-49 0 -82.5 15.5t-54.5 43.5t-30 65t-9 81v55q0 44 9 81.5t30 65t54.5 43
t82.5 15.5q48 0 81.5 -15t54.5 -42t30 -64.5t9 -83.5v-55zM329 549q0 77 -23 107t-72 30t-72.5 -31.5t-23.5 -105.5v-55q0 -77 23.5 -107t72.5 -30t72 30t23 107v55z" />
    <glyph glyph-name="guilsinglleft" unicode="&#x2039;" horiz-adv-x="382" 
d="M219 81l-163 208l163 206h106l-158 -206l158 -208h-106z" />
    <glyph glyph-name="guilsinglright" unicode="&#x203a;" horiz-adv-x="382" 
d="M162 81h-106l159 208l-159 206h106l164 -206z" />
    <glyph glyph-name="Euro" unicode="&#x20ac;" horiz-adv-x="667" 
d="M428 673q-36 0 -68 -5t-58.5 -23.5t-45.5 -54.5t-28 -97h330l-20 -71h-319q-1 -10 -1 -19.5v-19.5q0 -16 0.5 -31.5t1.5 -31.5h287l-19 -71h-258q10 -61 29 -97t45 -54.5t57.5 -24t66.5 -5.5q15 0 35.5 1t43 2.5t46 3.5t44.5 4v-76q-12 -3 -31.5 -6t-43 -5.5t-49 -4
t-50.5 -1.5q-47 0 -93.5 9.5t-86.5 37.5t-69 79.5t-40 136.5h-72v71h64q-1 15 -1.5 30.5t-0.5 31.5v20t1 20h-63v71h71q10 86 39 137.5t68.5 79.5t87 36.5t95.5 8.5q25 0 50.5 -1.5t49 -4t43 -5.5t31.5 -6v-76q-21 2 -44.5 4t-46 3.5t-43 2.5t-35.5 1z" />
    <glyph glyph-name="trademark" unicode="&#x2122;" horiz-adv-x="887" 
d="M731 349v226q0 40 3 78h-1q-8 -15 -16 -31t-16 -30l-60 -97h-59l-58 97q-8 12 -16.5 29t-16.5 32h-1q3 -38 3 -78v-226h-73v394h86l81 -139q8 -12 13 -22t11 -24h1q7 14 11.5 24t12.5 22l82 139h87v-394h-74zM238 684v-335h-75v335h-120v59h314v-59h-119z" />
    <glyph glyph-name="glyph204" horiz-adv-x="457" 
d="M124 770l104 -106l105 106h90l-135 -154h-119l-135 154h90z" />
    <glyph glyph-name="glyph205" horiz-adv-x="457" 
d="M345 715q0 -58 -33 -83.5t-82 -25.5q-25 0 -46.5 6t-37.5 19.5t-25 34t-9 49.5t9 49.5t25 34t37.5 19.5t46.5 6q49 0 82 -25.5t33 -83.5zM285 715q0 32 -16 43.5t-39 11.5q-24 0 -40 -11.5t-16 -43.5q0 -31 16 -43t40 -12q23 0 39 12t16 43z" />
    </font>
</defs>
</svg>
